<?xml version="1.0" encoding="utf-8"?>
<!-- Generator: Adobe Illustrator 19.0.0, SVG Export Plug-In . SVG Version: 6.00 Build 0)  -->
<svg version="1.1" id="Ebene_1" xmlns="http://www.w3.org/2000/svg" xmlns:xlink="http://www.w3.org/1999/xlink" x="0px" y="0px"
	 viewBox="0 0 234.3 234.3" style="enable-background:new 0 0 234.3 234.3;" xml:space="preserve">
<style type="text/css">
	.st0{fill:url(#Fill-3_1_);}
	.st1{fill:#4980BE;}
	.st2{fill:#4B80C1;}
	.st3{fill:url(#XMLID_225_);}
	.st4{fill:url(#XMLID_226_);}
	.st5{fill:#37291B;}
	.st6{fill:#72561F;}
	.st7{fill:url(#XMLID_227_);}
	.st8{fill:url(#XMLID_228_);}
	.st9{fill:url(#XMLID_229_);}
	.st10{fill:url(#XMLID_230_);}
	.st11{fill:url(#XMLID_231_);}
</style>
<g id="XMLID_219_">

		<radialGradient id="Fill-3_1_" cx="110.4167" cy="869.6452" r="59.0957" gradientTransform="matrix(0.9999 0 0 -1 5.927479e-002 993.6398)" gradientUnits="userSpaceOnUse">
		<stop  offset="0" style="stop-color:#C79628"/>
		<stop  offset="0.357" style="stop-color:#C59427"/>
		<stop  offset="0.6119" style="stop-color:#BD8E27"/>
		<stop  offset="0.8342" style="stop-color:#AE8525"/>
		<stop  offset="1" style="stop-color:#9F7C25"/>
	</radialGradient>
	<path id="Fill-3_12_" class="st0" d="M163.6,104C157.9,70.4,108,71,111,69.7c-4.3,0-8.6-0.8-12.7-3
		c-12.1,4.3-32.6,11-39.9,24.6c-2.5,4-4.5,8.3-5.9,12.9c-0.9,2.8,0,5.8-0.5,8.8c-0.5,3-2.3,6.1-2.3,9.3c0,5.3,0.7,10.4,2,15.3
		c-2-1.6,19.2,31.9,16.7,27.3c0.1,0.3,0.2,0.6,0.4,0.9c2.4,2.2,4.9,4.2,7.6,6c0.5,0.3,1.4,0,1.9,0.2c0.9,0.6,1.4,1.8,2.4,2.3
		c2.1,1.1,4.2,2.1,6.4,3c1.2,0.5,2.5,0.1,3.7,0.5c1.3,0.4,2.5,1.6,3.8,1.9c3.2,0.8,6.5,1.3,9.8,1.6c-0.2-2.3,61.7-15,66.6-35.8
		c1.4-5-1.1-18.1-1.1-23.3C169.8,116,165.6,109.9,163.6,104"/>
	<path id="XMLID_220_" d="M105.2,182.2l-0.9-0.1c-3.4-0.3-6.8-0.8-9.9-1.6c-0.8-0.2-1.5-0.7-2.2-1.1c-0.6-0.3-1.1-0.7-1.6-0.8
		c-0.5-0.2-1-0.2-1.6-0.2c-0.7,0-1.4-0.1-2.2-0.4c-2.2-0.9-4.4-1.9-6.5-3c-0.6-0.4-1.1-0.9-1.5-1.4c-0.3-0.4-0.6-0.7-0.9-0.9
		c-0.1,0-0.3,0-0.5,0c-0.4,0-1,0-1.4-0.3c-2.8-1.8-5.4-3.9-7.7-6.1l-0.1-0.1l-0.1-0.2c-0.1-0.2-0.1-0.3-0.1-0.4
		c-0.9-1.2-5.4-8.3-9.1-14.2c-1.6-2.6-3.9-6.3-5.6-9.2c-0.8-1.3-1.4-2.4-1.8-3.1c-0.5-0.9-0.8-1.4-0.6-1.9c-1.3-4.9-1.9-10-1.9-15
		c0-2,0.7-3.9,1.3-5.7c0.4-1.3,0.9-2.5,1-3.7c0.2-1.2,0.1-2.5,0.1-3.7c-0.1-1.7-0.1-3.5,0.4-5.2c1.5-4.6,3.5-8.9,6-13
		c3.2-5.9,9-11,17.6-15.7c7.3-3.9,15.1-6.6,21.3-8.8c0.5-0.2,0.9-0.3,1.4-0.5l0.3-0.1l0.3,0.2c3.7,1.9,7.7,2.9,12.3,2.9h3.7
		l-1.4,0.6c0.4,0.1,0.7,0.1,1.1,0.2c5.4,0.8,16.8,2.3,27.3,7.2c13,6,20.7,15.1,22.8,27c0.6,1.9,1.5,3.8,2.4,5.7
		c1.9,4.1,3.8,8.3,3.7,12.7c0,1.8,0.3,4.7,0.7,7.7c0.6,5.8,1.4,12.4,0.5,15.8c-0.9,3.8-3.6,7.5-8.1,11.1c-3.8,3-8.9,6.1-15.2,9.1
		c-11.5,5.4-24.8,9.6-33.6,12.3c-4.4,1.4-8.6,2.7-9.6,3.3L105.2,182.2z M77.6,171c0.3,0,0.7,0,1,0.2c0.6,0.4,1,0.9,1.3,1.3
		c0.3,0.4,0.6,0.8,1,1c2.1,1.1,4.2,2.1,6.3,3c0.5,0.2,1.1,0.2,1.7,0.2c0.6,0,1.3,0,2,0.3c0.7,0.2,1.3,0.6,2,1
		c0.6,0.4,1.2,0.7,1.8,0.9c2.9,0.7,6.1,1.3,9.2,1.5c0.9-0.7,3.5-1.6,10.4-3.7c8.8-2.8,22-6.9,33.4-12.3
		c13.4-6.3,20.9-12.7,22.4-19.1l0,0c0.8-3.1,0.1-9.8-0.5-15.2c-0.3-3.1-0.7-6-0.7-7.9c0-4-1.8-8.1-3.6-12c-0.9-2-1.8-4-2.5-6l0-0.1
		l0-0.1c-4.6-26.7-37.8-31.4-48.7-32.9c-1.1-0.2-1.9-0.3-2.5-0.4c-0.5-0.1-0.9-0.2-1.3-0.4c-4.5-0.1-8.5-1-12.1-2.9
		c-0.3,0.1-0.7,0.2-1.1,0.4C84.8,72.3,66,78.9,59.1,91.7l0,0c-2.4,4-4.4,8.2-5.9,12.7c-0.5,1.5-0.4,3-0.3,4.7c0.1,1.3,0.1,2.6-0.1,4
		c-0.2,1.3-0.7,2.7-1.1,4c-0.6,1.7-1.2,3.5-1.2,5.2c0,5.1,0.7,10.1,2,15.1l0.2,0.8c2.2,4.3,14.5,23.9,16.3,26.4l0.1,0
		c0.1,0.2,0.3,0.5,0.3,0.8c0,0,0,0.1,0,0.1c2.3,2.1,4.7,4,7.4,5.8c0.1,0,0.3,0,0.5,0C77.3,171,77.5,171,77.6,171z M68.5,164.4
		c-0.1,0-0.3,0-0.4,0.1c-0.2,0.1-0.3,0.3-0.3,0.5l1.1-0.5C68.8,164.5,68.7,164.4,68.5,164.4z"/>
</g>
<g id="XMLID_214_">
	<path id="XMLID_218_" class="st1" d="M130.6,79.5c0.7,3.2-0.7,6.8-3.3,8.7c0.7-1.3-1.3-3-2.5-2c-0.4,0.3-0.7,0.9-1.2,1.1
		c-1.1,0.6-2.3-0.6-2.9-1.6c-1.2,0.5-2.1,1.6-2.4,2.8c-1.7-0.4-3.3-1.3-4.6-2.5c-0.9,1.4-2.1,2.8-3.6,3.4s-3.6,0.3-4.6-1.1
		c-0.7,2.1-3,3.6-5.2,3.5c-2.2-0.1-4.3-1.8-4.8-4c-0.4,1.1-1.7,1.5-2.8,1.2c-1.1-0.3-1.9-1.1-2.8-1.8c-0.5-0.5-1-1.6-0.3-1.8
		c-1.7,0.4-2.7-0.8-2-2.2c-3.2,0.6-6.7-1.1-8.3-4c1.2,0.2,2.3,0,3.4-0.3c-1.8-1.2-3.6-2.5-5.4-3.8c0.8,0.1,1.6,0.2,2.4,0.3
		c0.4-1.5-1.2-2.7-2.6-3.3c-1.4-0.6-3.1-1.2-3.5-2.7c0.8-0.2,1.5-0.4,2.3-0.5c-1.7-1.4,4.8-5.7,6.5-7.1c0.4,3.9,3.2,7.2,6.7,9.1
		s7.4,2.6,11.3,3c5.5,0.6,11,0.9,16.5,0.7c2.4-0.1,5.1-0.3,6.7-2c1.2,1.6,2.8,3.3,4.7,3.1c0.6-0.1,1.1-0.3,1.7-0.4
		c1.6-0.4,3.3,0.2,4.4,1.5c-2.4,0.1-4.4,2.4-4.2,4.8"/>
	<path id="XMLID_215_" d="M100.6,92.9c-0.1,0-0.2,0-0.3,0c-2.1-0.1-4.1-1.4-5.1-3.2c-0.8,0.5-1.8,0.6-2.7,0.4
		c-1.4-0.4-2.4-1.3-3.2-2.1c-0.4-0.4-0.8-0.9-0.9-1.5c-0.6-0.1-1.1-0.4-1.5-0.9c-0.3-0.3-0.4-0.7-0.4-1.1c0,0-0.1,0-0.1,0
		c-3.2,0-6.3-1.8-7.9-4.6l-0.9-1.7l1.9,0.3c0.3,0,0.6,0.1,0.8,0.1c-1.1-0.8-2.3-1.6-3.4-2.4l-3.1-2.2l4.9,0.6
		c-0.4-0.5-1.1-1-1.8-1.3L76.7,73c-1.5-0.6-3.3-1.4-3.8-3.2l-0.3-1l1-0.2c0.4-0.1,0.8-0.2,1.3-0.3c0.1-1.7,2.6-3.7,5.8-6.1
		c0.6-0.4,1-0.8,1.3-1l1.4-1.1l0.2,1.8c0.3,3.2,2.7,6.4,6.2,8.3c3.3,1.8,7.2,2.5,10.9,2.9c5.4,0.6,10.9,0.9,16.4,0.7
		c2.3-0.1,4.7-0.3,6.1-1.8l0.8-0.8l0.7,0.9c1,1.4,2.4,2.9,3.8,2.7c0.3,0,0.6-0.1,0.9-0.2c0.2-0.1,0.5-0.1,0.7-0.2
		c2-0.4,4,0.3,5.3,1.8l1.2,1.5l-1.9,0.1c-0.9,0-1.7,0.5-2.4,1.2c-0.2,0.3-0.4,0.5-0.6,0.8c0.5,3.5-0.9,7.1-3.7,9.2l-3.3,2.5l1.9-3.7
		c0.1-0.2-0.1-0.5-0.3-0.7c-0.2-0.1-0.5-0.3-0.7-0.2l0,0c-0.1,0.1-0.2,0.2-0.3,0.4c-0.2,0.3-0.5,0.6-0.9,0.9
		c-1.2,0.6-2.5,0.2-3.7-1.2c-0.6,0.4-1,1.1-1.2,1.8l-0.2,1l-1-0.3c-1.5-0.4-2.9-1.1-4.2-2c-1,1.4-2.2,2.4-3.5,2.9
		c-1.6,0.6-3.4,0.5-4.7-0.4C104.7,91.7,102.7,92.9,100.6,92.9z M95.7,84.4l0.8,3.2c0.4,1.8,2.1,3.2,3.9,3.3c1.8,0.1,3.6-1.1,4.2-2.9
		l0.6-1.8l1.1,1.6c0.7,1,2.3,1.2,3.4,0.7c1.2-0.5,2.2-1.5,3.2-3.1l0.6-1l0.9,0.8c1,0.9,2.1,1.6,3.4,2c0.5-1.1,1.5-2.1,2.6-2.5
		l0.7-0.3l0.4,0.7c0.6,0.9,1.3,1.5,1.7,1.3l0,0c0.1-0.1,0.2-0.2,0.4-0.4c0.2-0.2,0.4-0.4,0.6-0.7c0.9-0.7,2.1-0.6,3.1,0.2
		c0.2,0.2,0.5,0.4,0.6,0.7c1.1-1.3,1.7-3,1.8-4.7l-0.4,0c-0.1-1.4,0.4-2.8,1.4-3.9c0.5-0.5,1-1,1.6-1.3c-0.6-0.3-1.4-0.3-2-0.2
		c-0.2,0-0.4,0.1-0.6,0.2c-0.4,0.1-0.8,0.2-1.2,0.3c-2.2,0.3-3.9-1.4-4.9-2.7c-1.8,1.3-4.2,1.6-6.6,1.6c-5.5,0.1-11.1-0.1-16.7-0.7
		c-3.9-0.5-8-1.1-11.6-3.1c-3.5-1.9-6-4.9-6.9-8.2c0,0-0.1,0.1-0.1,0.1c-1,0.8-2.3,1.7-3.4,2.7c-1.3,1.1-1.6,1.7-1.6,1.9l1.5,1.2
		l-2,0.4c-0.3,0.1-0.6,0.1-0.9,0.2c0.5,0.4,1.3,0.8,2.1,1.1l0.2,0.1c1.8,0.7,3.6,2.3,3.1,4.4l-0.1,0.6c0.9,0.6,1.8,1.3,2.7,1.9
		l1.6,1.1l-1.8,0.6c-0.6,0.2-1.2,0.3-1.8,0.4c1.6,1.6,4,2.4,6.3,2l2-0.4l-1,1.8c-0.1,0.1-0.2,0.4-0.1,0.6c0.1,0.2,0.5,0.3,1,0.2
		l0.5,1.9c0.2-0.1,0.3-0.3,0.3-0.4c0,0.1,0.1,0.4,0.3,0.6c0.7,0.7,1.5,1.4,2.3,1.6c0.6,0.2,1.5-0.1,1.6-0.6L95.7,84.4z"/>
</g>
<path id="XMLID_213_" d="M131.3,69.2c-1.1,6.2-12.6,13.4-18.8,14.9c-9.8,1.4-25.1-0.1-30-10C77.6,64.2,133.2,58.3,131.3,69.2z"/>
<path id="XMLID_212_" class="st2" d="M124.1,189.4c2-0.2,5.1-2,5.3-2.1c0.6,1,0.4,2.4,0.5,2.7c1.6,0,3.2-0.5,4.6-1.7
	c0.2,1.1,0,2.3-0.4,3.3c-0.1,0.3,4.2-0.8,4.7-1c1.8-0.9,3.3-2.4,4.2-4.2c2.3,0,4.4,0.5,6.6,1c3.1-0.4,12.1-12.7,10-6.4
	c3.7-2,10.5-13,9.6-7.3c8.3-6.5,7-21,9.1-15.3c3.3-5.1,4.3-10.1,4.6-6.5c2.4-4.6-0.3-8.3,2.4-7.4c1.9-4.3-1.2-10.7,3.6-8.9
	c-1.3-2.6-1.9-5.9-2.1-8.3c0.9-0.7,3-2,4.4,0.2c0.8-4-7.9-17.7,0.4-14c-0.1-6.4-2.7-8.7-5.2-13.5c2.9-1.5,0.7-7.4-2.1-10.3
	c0.4-1.2,2-1.3,3.5,0.6c0.6-5.6-5.3-13.1-7.8-15.2c1.1-1.1,1.8-1.6,4.1-0.9c-1.1-6.5-10.8-9.5-10.4-12.3c0.5-0.8,1.6-1.3,3.7-1.2
	c-0.9-4.4-11.7-3.4-14.5-6.4c1.7-1.9,0.8-2.2,2.8-3.7c-1.9-0.3-3.8,0.6-5.8,0.6c-1.9,0,1.3-4.2,1.6-6.1c0,0-4.9,1.3-5.8,2.8
	c-1.4-0.8-3.5-2.4-1.7-7.1c-5.9,0.7-5.6,5.9-11.5,6.2c2.6-4.1,0.6-5.7-0.7-6.6c-0.7,3.1-4.7,3.9-7.4,2.9c-0.4-0.1,3.2-2.3,0.7-7.4
	c-2.5,4.6-4,3.4-8.5,5.8c2-2.8-16.4-1.4-18.5-1.8c0.2-2.1-4.9,1.6-6.8,3.3c-1.8,1.7-4.3,2.9-6.8,2.8c0.2,0-10.2,1.1-8.7,1.1
	c-4.1,3.8-13.6,7.4-16.8,6.8c0.4,2.8,3,4.1,5.2,4.7c-0.7,2.8-9.8,2.6-11.2,2.2c1.5,2.4,2.6,5,5,4.9C67.3,68,65,70,62.8,71.2
	c2,2.5,5.2,0.3,6.4,1.2c-0.8,1.3-1.1,2.8-1.3,4.3c-0.1,0.4-0.1,0.9,0.1,1.3c0.2,0.3,0.5,0.6,0.8,0.8c1.5,0.9,3.3,1.4,5,1.3
	c0,0-0.1,0.1-0.1,0.1c0.1,0,0.3,0.2,0.2,0.2c0.4,1.1,1.8,1.6,2.9,1.3c1.1-0.3,2-1.2,2.7-2c0.3-0.4,0.6-0.8,1.1-0.9s1,0.3,0.9,0.7
	c2.9-0.8,5.4-2.8,6.7-5.5c0.9,4.4,6.9-2.6,7.9-5.1c1.5,2.5,8.2,4.6,7.3,1.6c2.7,1,4.5,4.3,6.1,3c-0.9-0.1-0.6-1.4-0.4-1.8
	c1.6,0.5,2.9,1,4.6,0.9c3,0.1,4.2-1.2,3.7-2c3.9,0.3,7-1,9.9-5.2c0.1-0.1,0.3,0,0.2,0.1c-2,4.6-5.4,14.5-6.5,15.2
	c-2.5,0-0.9-0.1-3.4-0.1c-0.2,0,2,0.9,2.2,1.9c-7.9-1.3-19.3,0.1-21.4,5.9c0.3-0.1-1.2,1.2-2.7,3.1c-1,1.2-0.9,2.8-1.3,4.1
	c0.6-0.2-1.1,3.2-1.1,4.2c0.2,0,1.8-0.4,3.1-1.2c-1.6,1.8-1.6,4.2-2,4.8c1.6,0.9,4.8,0,6.6-1.5c-0.1,2,1.3,2.6,1.8,2.6
	c2.3-4.1,5.1,0.2,10.4-0.7c-0.4-3.2,5.6-0.1,8.5-0.6c3.3-0.7,2.5-1.8,4.2-0.4c-0.1-1,2.4-1.4,2.2-1.4c1.6-1.9,9.4-1.9,9,0.8
	c5.1,1.4,7.8-6.7,11.1-5.5c-0.4,1.5-1,3.5-0.3,3.7c2.9,2.1,6.2,2.1,8.3,1.8c-1.4,3.1-0.3,4.4-0.3,4.4c-0.6,2.2,3,7.9,4.3,6.9
	c1.1,0.4,0.4,7.4,6,8c-2.5,2.5,1.3,8.2-1.2,10.2c-3.9-0.8,0.6,5.5-0.7,9.4c-3.1-3.2-9.9-5.8-10.7-3c-1.7-0.5-3.2,0.8-3.3,1.6
	c-0.1,1-3.2-4.9-8.2-1.3c0.3,1-0.2,1.5-0.2,1.5c-1,0.4-1.5-0.2-2.6,0c-2.8,0.6-4.5,5-3.8,5.7c-8.2,1.3-17.5,5.3-18.4,21.8
	C117.3,170.1,124.1,189.4,124.1,189.4z"/>
<path id="XMLID_208_" d="M134.3,192.3c-0.4,0-0.5-0.1-0.6-0.2c-0.3-0.2-0.3-0.6-0.2-0.9c0.2-0.5,0.3-1,0.4-1.5c-1.2,0.7-2.4,1-3.8,1
	l-0.6,0l-0.2-0.6c-0.1-0.2-0.1-0.4-0.1-0.6c0-0.3,0-0.7-0.1-1.1c-1.1,0.6-3.2,1.6-4.8,1.8l-0.6,0.1l-0.2-0.6c-0.7-2-6.9-19.5-7-21.8
	l0,0l0,0c0.4-7.6,2.7-13.4,6.8-17.1c2.9-2.7,6.5-4.4,11.5-5.2c0-0.3,0.1-0.6,0.2-1c0.4-1.6,2-4.3,4.4-4.8c0.7-0.1,1.2,0,1.6,0
	c0.3,0.1,0.4,0.1,0.6,0.1c0-0.1,0.1-0.4,0-0.7l-0.1-0.5l0.4-0.3c4-2.9,7-0.4,8.3,0.8c0.2-0.3,0.5-0.5,0.8-0.8
	c0.7-0.5,1.5-0.7,2.3-0.6c0.3-0.5,0.8-0.8,1.5-1c2.4-0.6,6.5,1.2,9.1,3.3c0-1.2-0.3-2.7-0.7-4c-0.5-1.9-0.9-3.4,0-4.2
	c0.5-0.5,1.2-0.5,1.7-0.5c0.6-0.8,0.3-2.3,0.1-3.9c-0.3-1.6-0.6-3.5,0-4.9c-3.5-1-4.3-4.6-4.8-6.6c-0.1-0.3-0.2-0.8-0.3-1
	c0,0,0,0,0,0c-0.3,0-0.7-0.1-1.1-0.4c-1.6-1.1-3.9-5-3.6-7.2c-0.3-0.6-0.6-1.7,0-3.6c-2.9,0.1-5.4-0.5-7.5-2c-1-0.5-0.8-2-0.3-3.7
	c-0.8,0.2-1.6,1-2.8,2.2c-1.9,1.9-4.2,4.3-7.5,3.4l-0.7-0.2l0.1-0.7c0-0.1,0.1-0.4-0.7-0.8c-1.9-0.8-5.5-0.5-6.6,0.3l0,0.4l-0.9,0.2
	c-0.5,0.1-1.2,0.4-1.4,0.6l0.1,1.8l-1.4-1.2c-0.4-0.3-0.5-0.4-0.6-0.5c-0.1,0-0.2,0.1-0.3,0.1c-0.4,0.2-1.2,0.6-2.6,0.9
	c-1.2,0.2-2.8-0.1-4.4-0.4c-1.1-0.2-3-0.6-3.4-0.3c0,0-0.1,0.2,0,0.4l0.1,0.8l-0.8,0.1c-2.4,0.4-4.3-0.2-5.8-0.7c-2-0.6-3-0.9-4,0.9
	l-0.2,0.4l-0.5,0h0c-0.5,0-1.2-0.3-1.7-0.8c-0.3-0.3-0.5-0.6-0.7-1.2c-2,1.2-4.8,1.7-6.4,0.8l-0.7-0.4l0.4-0.7
	c0-0.1,0.1-0.4,0.2-0.7c0.1-0.5,0.3-1.2,0.5-1.9c-0.6,0.2-1.1,0.3-1.3,0.3l-0.7-0.1l0-0.7c0-0.5,0.3-1.3,0.7-2.5
	c0-0.1,0.1-0.3,0.2-0.4l-0.2,0.1l0.4-1.5c0.1-0.4,0.2-0.8,0.3-1.2c0.2-1,0.4-2.2,1.2-3.2c0.8-1.1,1.7-1.9,2.2-2.5
	c0.1-0.1,0.2-0.3,0.3-0.4l0,0c1.1-2.9,4.2-5.1,9.1-6.2c3.2-0.7,7-0.9,10.6-0.6c-0.3-0.2-0.7-0.5-0.5-1c0.1-0.4,0.4-0.6,0.8-0.6
	c1.3,0,1.5,0,1.8,0c0.2,0,0.4,0,1.3,0c0.7-1,2.6-5.7,3.8-8.8c0.3-0.8,0.6-1.5,0.9-2.2c-2,1.8-4.3,2.6-7,2.5c0,0.1-0.1,0.3-0.2,0.4
	c-0.6,1.1-2.3,1.6-4.4,1.5c-0.9,0-1.7-0.1-2.4-0.3l-1.3,1c-1.5,1.1-2.9-0.1-4.2-1.1c-0.5-0.4-1.1-0.9-1.7-1.3
	c-0.2,0.4-0.5,0.7-0.9,0.8c-1.6,0.7-5.2-0.5-7-2.2c-1.4,2.3-4.5,5.9-6.8,5.9c-0.1,0-0.1,0-0.2,0c-0.3,0-0.8-0.2-1.2-0.6
	c-1.5,2.2-3.8,3.9-6.4,4.6l-1.4,0.4l0.3-1c-0.2,0.1-0.3,0.3-0.5,0.5l0,0c-0.7,0.9-1.7,2-3.1,2.3c-1.4,0.4-3-0.3-3.7-1.5h-0.2l0,0
	c-1.7,0-3.3-0.5-4.7-1.4c-0.5-0.3-0.9-0.7-1.1-1.1c-0.3-0.6-0.3-1.3-0.2-1.8c0.2-1.3,0.4-2.5,0.9-3.6c-0.3,0-0.5,0.1-0.8,0.1
	c-1.4,0.2-3.5,0.5-5-1.4L61.6,71l0.8-0.5c2.1-1.2,3.7-2.7,4.4-4.4c-1.9-0.5-2.9-2.3-4-4.2c-0.2-0.3-0.4-0.7-0.6-1l-1-1.7l1.9,0.5
	c1.2,0.3,7.3,0.4,9.6-0.9c0.1,0,0.1-0.1,0.2-0.1c-3.4-1.2-4.4-3.3-4.7-5L68,52.7l1.1,0.2c2.9,0.5,11.7-2.7,15.8-6.3
	c0.1-0.3,0.3-0.5,0.8-0.6c0.1,0,0.3-0.1,0.6-0.1c0.4-0.1,1.1-0.1,1.9-0.2c1.5-0.2,3.3-0.4,4.6-0.5c0.9-0.1,1.6-0.2,1.7-0.2l0.1,0.8
	l0-0.8H95c2-0.1,4-1,5.8-2.6c0.8-0.7,2.2-1.8,3.6-2.7c2.4-1.6,3.3-1.5,3.8-1.2c0.1,0.1,0.4,0.2,0.5,0.6c0.9,0,2.6,0,4.3,0
	c8.7-0.2,13,0,14.1,1.3c1-0.5,1.9-0.8,2.7-1.1c1.9-0.7,3-1.1,4.5-3.9l0.7-1.4l0.7,1.4c1.8,3.7,0.7,6.1-0.1,7.3
	c1.3,0.2,2.6,0,3.7-0.5c0.9-0.5,1.4-1.2,1.7-2.1l0.3-1.2l1,0.7c1.1,0.8,3.4,2.4,1.7,6.3c1.7-0.4,2.7-1.4,3.9-2.6
	c1.4-1.4,3-3,6.1-3.4l1.3-0.2l-0.5,1.2c-1.4,3.5-0.4,5,0.8,5.8c1.7-1.5,5.8-2.5,5.8-2.5c0.4,0,0.6,0.1,0.7,0.2l0.3,0.3l-0.1,0.4
	c-0.1,0.8-0.7,1.9-1.2,3c-0.3,0.6-0.8,1.6-1,2.2c0.7,0,1.3-0.2,2.1-0.3c1.2-0.2,2.4-0.5,3.6-0.3l1.9,0.3l-1.5,1.2
	c-1,0.7-1.1,1.1-1.4,1.6c-0.2,0.4-0.4,0.8-0.8,1.4c1.3,0.9,3.6,1.3,5.8,1.8c3.8,0.8,7.8,1.6,8.4,4.6l0.2,1l-1.1-0.1
	c-1.9-0.1-2.6,0.3-2.8,0.6c0.1,0.8,1.8,2,3.2,3.1c2.9,2.2,6.5,4.8,7.2,8.9l0.2,1.3l-1.2-0.4c-1.5-0.4-2.1-0.3-2.7,0.2
	c2.9,2.8,8,9.8,7.4,15.3l-0.2,2l-1.2-1.6c-0.7-0.9-1.4-1.2-1.7-1.1c0,0,0,0,0,0c1.9,2.2,3.6,5.8,3.2,8.4c-0.1,0.9-0.5,1.6-1.1,2.1
	c0.5,1,1,1.8,1.5,2.7c1.8,3,3.3,5.6,3.4,10.5l0,1.3l-1.1-0.5c-1.8-0.8-2.3-0.5-2.3-0.4c-0.1,0.1-0.4,0.4,0,2.1
	c0.3,1.3,0.9,2.9,1.4,4.5c1,2.9,2,5.6,1.6,7.3l-0.4,1.9l-1.1-1.6c-0.3-0.5-0.7-0.8-1.1-0.8c-0.6-0.1-1.3,0.2-1.8,0.6
	c0.2,1.9,0.7,5.1,2,7.5l0.9,1.8l-1.9-0.7c-1-0.4-1.4-0.2-1.5-0.2c-0.4,0.3-0.4,1.7-0.4,3c0,1.7,0,3.8-0.8,5.6l-0.3,0.7l-0.7-0.2
	c-0.1,0-0.2-0.1-0.2-0.1c0,0.2,0,0.6,0,1c0,1.5,0.1,3.6-1.2,6.1l-1.2,2.3l-0.2-1.9c-0.1,0.2-0.1,0.3-0.2,0.5c-0.7,1.5-1.7,3.5-3,5.6
	l-0.9,1.3l-0.5-1.5c-0.1,0.4-0.2,0.8-0.3,1.2c-0.9,3.6-2.5,10.4-7.6,14.3l-1.6,1.2l0.3-2c0-0.2,0-0.3,0.1-0.4
	c-0.7,0.6-1.9,2-2.9,3.1c-1.9,2.1-4,4.5-5.6,5.4l-1.8,0.9l0.6-1.9c0,0,0-0.1,0-0.1c-0.7,0.6-1.7,1.6-2.6,2.4c-3,3-5.1,4.9-6.6,5.1
	l-0.1,0l-0.1,0c-0.3-0.1-0.6-0.1-0.8-0.2c-1.7-0.4-3.4-0.7-5.1-0.8c-1,1.7-2.5,3.2-4.3,4.1c-0.4,0.2-2.2,0.7-2.6,0.8
	C135.4,192.2,134.7,192.3,134.3,192.3z M135.1,186.7l0.2,1.3c0.1,0.8,0.1,1.7-0.1,2.5c1.1-0.2,2.8-0.7,3.2-0.8
	c1.7-0.9,3-2.3,3.8-3.9l0.2-0.4l0.5,0c2.1,0,4,0.4,5.9,0.8c0.2,0,0.4,0.1,0.7,0.1c1.2-0.3,3.8-2.9,5.6-4.7c3-3,4.1-3.9,5-3.3
	c0.3,0.2,0.4,0.4,0.5,0.6c1.2-1.1,2.5-2.6,3.7-4c2.7-3.1,3.9-4.4,5-3.8c0.3,0.1,0.5,0.4,0.6,0.6c3.7-3.6,5-9,5.8-12.4
	c0.5-2.2,0.8-3.3,1.7-3.3c0.4,0,0.7,0.2,0.9,0.5c0.9-1.6,1.6-3.1,2.2-4.2c0.9-2,1.3-2.8,2.2-2.6c0.1,0,0.1,0,0.2,0
	c0.4-1.4,0.4-2.7,0.4-3.7c0-1.1-0.1-1.9,0.6-2.4c0.3-0.2,0.7-0.3,1-0.3c0.4-1.4,0.4-3,0.4-4.4c0-1.9,0-3.5,1.1-4.3
	c0.4-0.2,0.8-0.4,1.3-0.4c-0.9-2.4-1.3-5.1-1.5-7.1l0-0.4l0.3-0.3c0.5-0.4,1.9-1.4,3.4-1.2c0.2,0,0.5,0.1,0.7,0.2
	c-0.3-1.4-0.9-3.2-1.5-4.8c-1.3-3.8-2.5-7-1-8.3c0.8-0.7,1.8-0.6,2.9-0.3c-0.3-3.8-1.6-5.9-3.1-8.6c-0.6-1-1.3-2.1-1.9-3.4l-0.4-0.7
	l0.7-0.4c0.5-0.3,0.8-0.7,0.9-1.4c0.3-2.1-1.2-5.5-3.2-7.6l-0.4-0.4l0.2-0.5c0.3-0.7,0.9-1.2,1.6-1.4c0.6-0.1,1.2,0,1.8,0.4
	c-0.6-5-5.4-11-7.5-12.8l-0.7-0.6l0.6-0.6c1-1,1.8-1.7,3.6-1.4c-1-2.8-3.9-4.9-6.2-6.7c-2.3-1.7-4.1-3-3.9-4.7l0-0.2l0.1-0.1
	c0.6-0.9,1.6-1.5,3-1.6c-1.2-1.2-3.9-1.8-6.6-2.4c-3-0.6-5.8-1.2-7.2-2.7l-0.5-0.5l0.5-0.5c0.7-0.7,0.9-1.2,1.1-1.6
	c0.1-0.2,0.2-0.5,0.4-0.7c-0.4,0.1-0.8,0.1-1.2,0.2c-0.8,0.2-1.7,0.3-2.6,0.3c-0.7,0-1.1-0.4-1.2-0.6c-0.6-0.9,0.1-2.2,1-3.9
	c0.2-0.4,0.4-0.8,0.6-1.2c-1.4,0.5-3.4,1.3-3.8,2l-0.4,0.7l-0.7-0.4c-2.5-1.3-3.4-3.6-2.5-6.8c-1.8,0.5-2.8,1.6-3.9,2.7
	c-1.5,1.5-3.1,3.1-6.4,3.3l-1.5,0.1l0.8-1.3c1.7-2.7,1.2-4.1,0.3-4.9c-0.4,0.8-1.1,1.5-2,2c-1.7,0.9-4.1,1.1-6,0.4
	c-0.3-0.1-0.4-0.3-0.5-0.6c-0.1-0.4,0.1-0.8,0.4-1.1c0.5-0.7,1.7-2.1,1-4.7c-1.5,2.1-2.8,2.6-4.5,3.2c-1,0.3-2.1,0.7-3.4,1.5
	l-3.1,1.7l1.9-2.7c-0.4-0.2-1.5-0.5-4.5-0.6c-2.6-0.1-5.7-0.1-8.2,0c-2.9,0-4.5,0.1-5.2-0.1l-0.7-0.1l0-0.4
	c-1.1,0.3-3.8,2.1-5.4,3.6c-2.1,2-4.8,3.1-7.3,3c0,0,0,0-0.1,0c-0.1,0-0.2,0-0.4,0c-0.3,0-0.7,0.1-1.2,0.1c-1.7,0.2-5.5,0.6-6.7,0.8
	c-2,1.8-5.2,3.7-8.8,5.1c-2.9,1.1-5.5,1.8-7.4,1.9c0.6,1.4,2,2.4,4.3,3l0.8,0.2l-0.2,0.8c-0.2,0.7-0.6,1.3-1.4,1.7
	c-2.2,1.3-6.6,1.5-9.1,1.3c1.1,2,2,3.2,3.4,3.2c0,0,0.1,0,0.1,0l1,0l-0.2,1c-0.6,2.8-2.9,4.7-4.5,5.7c0.7,0.4,1.6,0.3,2.8,0.2
	c1-0.1,2-0.3,2.7,0.3l0.5,0.5l-0.4,0.6c-0.7,1.1-1,2.5-1.2,4c0,0.3-0.1,0.7,0,0.9c0,0.1,0.2,0.3,0.5,0.5l0,0c1.3,0.8,3,1.3,4.5,1.2
	l0.1,0h0.6l0.1,0.5c0.1,0.1,0.2,0.3,0.2,0.5c0.3,0.5,1.2,0.8,1.9,0.6c0.9-0.2,1.7-1,2.3-1.8c0.3-0.4,0.8-1,1.5-1.2
	c0.5-0.1,1.1,0,1.5,0.5c0,0,0,0,0,0c2.4-0.8,4.4-2.6,5.5-4.9l1-2.1l0.5,2.3c0.1,0.5,0.3,0.8,0.5,0.8c1.5,0.1,5.1-4,5.9-6l0.6-1.5
	l0.8,1.4c0.8,1.3,3.4,2.5,5,2.7c0.6,0.1,0.9-0.1,0.9-0.1c0,0,0-0.1,0-0.4l-0.5-1.5l1.5,0.5c1.3,0.4,2.3,1.3,3.2,2
	c0.5,0.4,0.9,0.8,1.2,0.9c0-0.5,0.1-1,0.3-1.3l0.3-0.7l0.7,0.2c0.2,0.1,0.4,0.1,0.6,0.2c1.3,0.4,2.4,0.7,3.7,0.7c0,0,0,0,0.1,0l0,0
	l0,0c2.1,0.1,2.9-0.6,3-0.8l-0.8-1.3l1.5,0.1c3.9,0.3,6.6-1.2,9.1-4.9c0.3-0.4,0.8-0.5,1.2-0.3c0.4,0.2,0.6,0.8,0.4,1.2
	c-0.7,1.5-1.5,3.6-2.3,5.9c-2.4,6.3-3.6,9.1-4.5,9.7l-0.2,0.1l-0.2,0c-0.4,0-0.6,0-0.8,0c0.2,0.3,0.4,0.5,0.4,0.8l0.3,1.2l-1.2-0.2
	c-7.2-1.2-18.2-0.1-20.4,5.2c0,0.4-0.3,0.7-0.8,1.2c-0.5,0.5-1.3,1.4-2.1,2.4c-0.6,0.7-0.7,1.6-0.9,2.5c-0.1,0.3-0.1,0.6-0.2,0.9
	c0.2,0.5-0.1,1.2-0.6,2.5c-0.1,0.2-0.2,0.5-0.3,0.8c0.5-0.2,1.1-0.4,1.6-0.7l4.5-2.7l-3.5,3.9c-1,1.1-1.3,2.5-1.5,3.5
	c0,0.1,0,0.2-0.1,0.3c1.4,0.3,3.7-0.4,5.1-1.6l1.4-1.2l-0.1,1.8c0,0.9,0.3,1.4,0.6,1.6c1.6-2.3,3.6-1.7,5.5-1.1
	c1.3,0.4,2.7,0.8,4.4,0.7c0.1-0.4,0.2-0.7,0.5-1c1-0.9,2.8-0.5,4.8-0.1c1.4,0.3,2.8,0.6,3.7,0.4c1.2-0.2,1.8-0.6,2.2-0.8
	c0.8-0.4,1.2-0.4,1.9-0.1c0.6-0.5,1.6-0.8,2.1-0.9c1.7-1.5,6.3-1.8,8.6-0.8c0.9,0.4,1.4,1,1.6,1.7c2.1,0.3,3.8-1.4,5.4-3.1
	c1.6-1.6,3.3-3.3,5.3-2.6l0.7,0.3l-0.2,0.7c-0.6,1.9-0.6,2.6-0.6,2.9c2,1.5,4.6,2,7.7,1.6l1.4-0.2l-0.6,1.3
	c-1.1,2.4-0.5,3.5-0.4,3.6l0.3,0.3l-0.2,0.4c-0.2,0.8,0.4,2.6,1.5,4.2c0.8,1.1,1.4,1.6,1.6,1.7l0.3-0.2l0.4,0.1
	c0.7,0.3,0.9,1.1,1.2,2.3c0.6,2.8,1.5,5.3,4.6,5.7l1.7,0.2l-1.2,1.2c-1,1-0.7,2.8-0.4,4.6c0.4,2.1,0.7,4.4-0.9,5.6l-0.3,0.2
	l-0.4-0.1c-0.4-0.1-0.6,0-0.6,0c-0.2,0.3,0.2,1.8,0.4,2.7c0.5,1.9,1.1,4.3,0.4,6.2l-0.4,1.3l-0.9-1c-2.2-2.3-6.8-4.4-8.7-3.9
	c-0.5,0.1-0.6,0.3-0.6,0.5l-0.2,0.8l-0.8-0.2c-0.8-0.2-1.4,0.1-1.7,0.3c-0.4,0.3-0.6,0.6-0.6,0.7c0,0.4-0.3,0.6-0.6,0.8
	c-0.6,0.2-1-0.2-1.5-0.6c-1.1-1-3.1-3-6.1-1.1c0.1,1-0.3,1.6-0.4,1.6l-0.1,0.2l-0.2,0.1c-0.8,0.4-1.3,0.2-1.8,0.1
	c-0.3-0.1-0.6-0.1-1,0c-0.9,0.2-1.9,1-2.6,2.2c-0.6,1-0.8,1.9-0.8,2.2l1.1,1l-1.6,0.3c-7.8,1.2-16.8,4.7-17.8,21
	c0.1,1.6,4,13,6.7,20.7c1.6-0.4,3.7-1.5,4.4-1.9l0.7-0.4l0.4,0.7c0.4,0.7,0.5,1.6,0.6,2.2c1.2-0.2,2.3-0.6,3.3-1.5L135.1,186.7z
	 M109.7,72.7l0.1,0C109.8,72.7,109.8,72.7,109.7,72.7C109.7,72.7,109.7,72.7,109.7,72.7z"/>
<path id="Fill-15_11_" d="M91.6,59.5c-2.7,2-1.9,4.5,1.1,4.8s3.2,0.6,6-1.5c3-2.2,3.4-6,0-5.6
	C95.3,57.7,93.1,58.4,91.6,59.5"/>
<g id="XMLID_203_">

		<radialGradient id="XMLID_225_" cx="108.6548" cy="950.6445" r="11.9312" gradientTransform="matrix(0.9999 0 0 -1 5.927479e-002 993.6398)" gradientUnits="userSpaceOnUse">
		<stop  offset="0" style="stop-color:#FFFFFF"/>
		<stop  offset="0.3407" style="stop-color:#FCFCFC"/>
		<stop  offset="0.5838" style="stop-color:#F1F2F2"/>
		<stop  offset="0.796" style="stop-color:#E1E1E0"/>
		<stop  offset="0.9904" style="stop-color:#CBCACB"/>
		<stop  offset="1" style="stop-color:#CAC9CA"/>
	</radialGradient>
	<circle id="XMLID_207_" class="st3" cx="108.7" cy="43" r="11.9"/>
	<path id="XMLID_204_" d="M108.7,55.7C101.7,55.7,96,50,96,43s5.7-12.7,12.7-12.7S121.4,36,121.4,43S115.7,55.7,108.7,55.7z
		 M108.7,31.9c-6.1,0-11.1,5-11.1,11.1c0,6.1,5,11.1,11.1,11.1c6.1,0,11.1-5,11.1-11.1C119.8,36.9,114.8,31.9,108.7,31.9z"/>
</g>
<g id="XMLID_198_">

		<radialGradient id="XMLID_226_" cx="84.6324" cy="946.934" r="11.9312" gradientTransform="matrix(0.9999 0 0 -1 5.927479e-002 993.6398)" gradientUnits="userSpaceOnUse">
		<stop  offset="0" style="stop-color:#FFFFFF"/>
		<stop  offset="0.3407" style="stop-color:#FCFCFC"/>
		<stop  offset="0.5838" style="stop-color:#F1F2F2"/>
		<stop  offset="0.796" style="stop-color:#E1E1E0"/>
		<stop  offset="0.9904" style="stop-color:#CBCACB"/>
		<stop  offset="1" style="stop-color:#CAC9CA"/>
	</radialGradient>
	<circle id="XMLID_202_" class="st4" cx="84.7" cy="46.7" r="11.9"/>
	<path id="XMLID_199_" d="M84.7,59.4c-7,0-12.7-5.7-12.7-12.7S77.7,34,84.7,34s12.7,5.7,12.7,12.7S91.7,59.4,84.7,59.4z M84.7,35.6
		c-6.1,0-11.1,5-11.1,11.1c0,6.1,5,11.1,11.1,11.1c6.1,0,11.1-5,11.1-11.1C95.8,40.6,90.8,35.6,84.7,35.6z"/>
</g>
<path id="Fill-17_11_" d="M107.2,42.7c0,2.4-2,4.4-4.4,4.4c-2.4,0-4.4-2-4.4-4.4c0-2.4,2-4.4,4.4-4.4
	C105.3,38.4,107.2,40.3,107.2,42.7"/>
<path id="Fill-16_11_" d="M93.2,50.8c0,2.4-2,4.4-4.4,4.4c-2.4,0-4.4-2-4.4-4.4c0-2.4,2-4.4,4.4-4.4
	C91.3,46.5,93.2,48.4,93.2,50.8"/>
<g id="XMLID_193_">
	<path id="XMLID_197_" class="st5" d="M80.5,98.2c2,0.9,6.9,3.9,4.9,6.1c-2,2.2-9,1.9-8.9,0C76.6,102.4,78.3,97.2,80.5,98.2z"/>
	<path id="XMLID_194_" d="M80.3,106.7c-1.3,0-2.4-0.2-3.2-0.5c-1.3-0.6-1.5-1.4-1.4-1.9c0.1-1.4,1.1-5.4,3.1-6.6
		c0.7-0.4,1.4-0.4,2.1-0.1l0,0c0.2,0.1,5.3,2.5,5.8,5.2c0.2,0.8-0.1,1.5-0.6,2.2C84.8,106.1,82.5,106.7,80.3,106.7z M77.3,104.4
		c0,0.1,0.4,0.4,1.4,0.6c2,0.4,5,0,6.1-1.2c0.2-0.2,0.3-0.5,0.2-0.8c-0.3-1.4-3-3.2-4.9-4.1c-0.1-0.1-0.3-0.1-0.6,0.1
		C78.4,99.7,77.4,102.9,77.3,104.4z"/>
</g>
<g id="XMLID_188_">
	<path id="XMLID_192_" class="st5" d="M133.3,105.2c0,2.2-1.5,7.8-2.3,4.9c-0.8-2.9-5.5-7.5-3.7-8.1
		C129.2,101.3,133.4,102.8,133.3,105.2z"/>
	<path id="XMLID_189_" d="M131.6,111.8c-0.4,0-1-0.3-1.3-1.4c-0.3-1.1-1.3-2.5-2.1-3.8c-1.4-2.1-2.2-3.4-1.9-4.4
		c0.1-0.4,0.4-0.7,0.9-0.9c1.4-0.5,3.7-0.1,5.2,1c1.1,0.8,1.8,1.8,1.8,2.9l0,0c0,0.9-0.3,2.4-0.6,3.7c-0.6,2.4-1.3,2.8-1.8,2.8
		C131.7,111.7,131.6,111.8,131.6,111.8z M127.8,102.7c0.1,0.6,1.1,2,1.7,3c0.9,1.3,1.7,2.6,2.2,3.8c0.4-1.1,0.8-3,0.8-4.3
		c0-0.7-0.7-1.3-1.1-1.6C130.3,102.8,128.6,102.5,127.8,102.7z"/>
</g>
<g id="XMLID_183_">
	<path id="XMLID_187_" class="st5" d="M66,120.3c-0.3,2.2-0.1,5.9-2.8,4.7c-2.7-1.3-4.6-1.4-2.7-1.9C62.3,122.6,66.2,117.9,66,120.3
		z"/>
	<path id="XMLID_184_" d="M64.1,126c-0.4,0-0.8-0.1-1.3-0.3c-0.9-0.4-1.7-0.7-2.3-0.9c-1.1-0.4-1.7-0.6-1.6-1.3
		c0-0.7,0.8-0.9,1.3-1.1c0.6-0.2,1.7-1.1,2.6-1.8c1.6-1.3,2.5-2.1,3.4-1.6c0.3,0.2,0.7,0.6,0.6,1.4l0,0c0,0.3-0.1,0.6-0.1,1
		c-0.2,1.7-0.3,3.6-1.6,4.4C64.8,126,64.5,126,64.1,126z M61.6,123.5c0.5,0.2,1.2,0.5,1.9,0.8c0.2,0.1,0.6,0.3,0.8,0.1
		c0.5-0.3,0.7-2.1,0.8-3.1c0-0.2,0-0.3,0-0.5c-0.4,0.3-0.9,0.7-1.3,1C63.1,122.4,62.3,123.1,61.6,123.5z"/>
</g>
<g id="XMLID_178_">
	<path id="XMLID_182_" class="st5" d="M95.4,128.1c2-0.8,5.2-4.6,5.4-1.6c0.2,3-4.8,7.9-6.1,6.5C93.3,131.5,93.2,129,95.4,128.1z"/>
	<path id="XMLID_179_" d="M95.3,134c-0.6,0-1-0.3-1.2-0.5c-1-1-1.4-2.4-1.1-3.7c0.2-1.1,1-2,2.1-2.4l0,0c0.6-0.2,1.3-0.8,2-1.3
		c1.4-1,2.5-1.9,3.5-1.4c0.6,0.3,0.9,0.8,0.9,1.7c0.2,2.7-3,6.4-5.2,7.3C96,133.9,95.6,134,95.3,134z M95.7,128.8
		c-0.7,0.3-1.1,0.7-1.2,1.3c-0.2,0.7,0.1,1.6,0.7,2.3c0.1,0,0.5,0,1.4-0.6c1.7-1.2,3.5-3.7,3.4-5.2c0-0.2,0-0.3-0.1-0.4
		c-0.4,0.1-1.3,0.8-1.9,1.2C97.3,127.9,96.5,128.5,95.7,128.8L95.7,128.8z"/>
</g>
<g id="XMLID_173_">
	<path id="XMLID_177_" class="st5" d="M81.6,156c2,0.9,6.9,7.9,4.9,10.1c-2,2.2-9-2-8.9-4C77.7,160.2,79.4,155,81.6,156z"/>
	<path id="XMLID_174_" d="M84.8,167.5c-0.9,0-1.9-0.2-3.1-0.7c-2.1-0.9-5.1-3-5-4.7c0.1-1.4,1.2-5.5,3.1-6.6c0.7-0.4,1.4-0.4,2-0.1
		l0,0c1.9,0.9,5.1,5.3,5.7,8.4c0.3,1.3,0.1,2.3-0.6,3C86.5,167.2,85.7,167.5,84.8,167.5z M81,156.7c-0.1,0-0.2,0-0.3,0.1
		c-1.2,0.7-2.3,4-2.4,5.4c0,0.5,1.7,2.2,4.1,3.2c1.6,0.7,2.9,0.7,3.4,0.2c0.3-0.4,0.3-1.1,0.2-1.6c-0.6-2.8-3.7-6.7-4.8-7.2
		C81.2,156.7,81.1,156.7,81,156.7z"/>
</g>
<g id="XMLID_168_">
	<path id="XMLID_172_" class="st6" d="M130.8,140.8c-0.3,2.2,1.9,5.9-0.8,4.7s-4.6-1.4-2.7-1.9C129.2,143.1,131.1,138.4,130.8,140.8
		z"/>
	<path id="XMLID_169_" d="M130.9,146.5c-0.5,0-1-0.2-1.2-0.3c-0.9-0.4-1.6-0.7-2.2-0.9c-1.1-0.4-1.7-0.6-1.7-1.4
		c0-0.7,0.8-0.9,1.4-1.1c0.7-0.2,1.6-1.4,2.2-2.2c0.7-0.9,1.1-1.5,1.8-1.2c0.7,0.3,0.6,1.1,0.6,1.5l0,0c-0.1,0.6,0.1,1.6,0.3,2.4
		c0.3,1.3,0.5,2.4-0.2,3C131.4,146.5,131.2,146.5,130.9,146.5z M128.4,143.9c0.5,0.2,1.2,0.5,1.9,0.8c0.1,0,0.2,0.1,0.2,0.1
		c0-0.3-0.1-0.9-0.2-1.2c-0.1-0.5-0.2-0.9-0.3-1.4C129.6,142.8,129,143.5,128.4,143.9z"/>
</g>
<g id="XMLID_163_">
	<path id="XMLID_167_" class="st2" d="M64,76.7c-2.3,2.5,2.6,2.3,4.6,4.5c-1.3-0.3,1.7,0.7-0.3,0.9c2.6,1.5,2.6,4.8,4,6.2
		c-0.9,0.7-2.2-0.6-2.8-0.9c-1.2-0.7,6.1,4.5,3.9,7.3c-1.9-1.6-2.8-0.5-3.5-0.5c2.5,2.9,1.4,5.6,1.6,8.3c-2.2,0.5-3.4-3.2-6.2-3.4
		c0.6,2.2,3.1,3,1,5c-0.2-0.3-2.1-0.7-2.3-0.8c-1.7,4-4.8-0.8-5.4-1.6c-0.4,0.6-0.5,1.3-0.7,1.6c0,0-2,0.2-3-1c-1.6-2-4.2-5.3-5-3.4
		c-2.4-0.8-3-6.4-4.4-5.9c-1.3-1.7,0.4-2.9-0.3-3.8c0,0-1-0.3-1.3,0c-0.5-3.4,3.6-7.5,0.8-7.8c0.2-1.6,3.9-5.8,6.4-3.6
		c0.9-1,0.6-1.7,0.3-2.1c0,0,3.3-1.2,4.1,0.8c1.1-0.8,1.9-1.5,3.7-1.7C61.1,74.6,63.1,75.7,64,76.7z"/>
	<path id="XMLID_164_" d="M62.3,105.6c-1.4,0-2.7-1.4-3.6-2.5c-0.1,0.2-0.2,0.4-0.3,0.6l-0.2,0.2l-0.3,0c-0.1,0-2.4,0.3-3.7-1.3
		l-0.3-0.4c-0.6-0.8-1.4-1.7-2.1-2.4c-0.9-0.9-1.3-1-1.3-1c0,0,0,0.1-0.1,0.1l-0.3,0.6l-0.6-0.2c-1.6-0.5-2.4-2.4-3.1-4.1
		c-0.3-0.6-0.7-1.5-0.9-1.8l-0.4,0.1l-0.3-0.4c-1-1.3-0.6-2.4-0.4-3.1c0.1-0.3,0.1-0.4,0.1-0.5c-0.1,0-0.3,0-0.4,0l-0.9,0.8
		l-0.2-1.3c-0.2-1.7,0.5-3.5,1.1-4.9c0.3-0.7,0.8-1.9,0.7-2.1l0,0c0,0-0.1-0.1-0.3-0.1L43.8,82l0.1-0.7c0.2-1.4,2.1-3.8,4.1-4.6
		c1-0.4,2-0.4,2.8,0c0.2-0.4,0-0.6-0.1-0.7l-0.6-0.8l0.9-0.3c1.2-0.5,3.4-0.8,4.6,0.5c0.9-0.7,1.8-1.2,3.5-1.4
		c2.2-0.2,4.3,0.9,5.5,2.2l0.5,0.5l-0.5,0.5c-0.4,0.5-0.4,0.6-0.4,0.6c0.1,0.2,1.1,0.7,1.7,0.9c1.1,0.4,2.5,1,3.4,2l1.5,1.6
		l-0.9-0.2c0,0,0,0.1,0,0.1c1.1,1,1.6,2.4,2.1,3.5c0.3,0.8,0.7,1.6,1.1,2.1l0.6,0.6l-0.7,0.5c-0.1,0.1-0.3,0.2-0.4,0.2
		c1.6,1.8,3.2,4.1,1.7,6l-0.5,0.6L73,95.3c-0.9-0.8-1.4-0.8-1.8-0.6c1.3,2,1.2,4,1.1,5.8c0,0.7-0.1,1.4,0,2l0,0.6l-0.6,0.1
		c-1.5,0.3-2.6-0.7-3.6-1.7c-0.4-0.4-0.8-0.8-1.2-1.1c0,0,0,0.1,0.1,0.1c0.7,1,1.7,2.3-0.2,4.1l-0.7,0.7l-0.4-0.7
		c-0.3-0.1-1-0.3-1.4-0.4c-0.5,0.9-1.1,1.3-1.8,1.4C62.5,105.6,62.4,105.6,62.3,105.6z M58.5,100.5l0.6,0.8c0.1,0.1,0.2,0.2,0.3,0.4
		c0.5,0.7,2,2.7,3,2.6c0.4-0.1,0.8-0.6,1-1.1l0.3-0.7l0.7,0.3c0.1,0,0.2,0.1,0.4,0.1c0.7,0.2,1.1,0.3,1.5,0.4c0.5-0.6,0.2-1-0.4-1.8
		c-0.4-0.5-0.9-1.2-1.1-2.1l-0.3-1l1,0.1c1.6,0.1,2.7,1.2,3.7,2.1c0.7,0.7,1.2,1.1,1.7,1.3c0-0.5,0-1,0-1.4c0.1-1.9,0.2-3.8-1.5-5.6
		l-1.1-1.2l1.6,0h0c0.1,0,0.2-0.1,0.4-0.1c0.6-0.2,1.5-0.6,2.8,0.2c0.1-1.2-1.2-2.9-3.8-5.3c-0.5-0.4-0.9-0.8-0.5-1.4
		c0.1-0.1,0.4-0.5,1.1-0.2c0.2,0.1,0.3,0.2,0.6,0.4c0.1,0.1,0.3,0.2,0.4,0.3c-0.2-0.4-0.3-0.7-0.5-1.1c-0.5-1.3-1.1-2.7-2.5-3.5
		l-1.9-1.1l1.6-0.2c0-0.1-0.1-0.2-0.1-0.3c-0.7-0.5-1.5-0.8-2.3-1.2c-1.2-0.5-2.3-0.9-2.5-1.9c-0.1-0.5,0.1-1,0.3-1.4
		c-0.9-0.8-2.4-1.5-3.8-1.3C57.7,75.6,57,76.2,56,77l-0.8,0.6l-0.4-0.9c-0.4-0.9-1.6-0.8-2.5-0.6c0.1,0.6,0,1.3-0.8,2.1l-0.5,0.5
		l-0.5-0.5c-0.6-0.5-1.2-0.6-2-0.2c-1.3,0.5-2.5,1.9-3,2.8c0.3,0.1,0.5,0.3,0.6,0.6c0.5,0.9,0,2-0.6,3.4c-0.5,1.1-1,2.3-1.1,3.4
		c0.3,0,0.6,0.1,0.8,0.1l0.2,0.1l0.1,0.2c0.5,0.7,0.3,1.4,0.1,2c-0.2,0.5-0.3,1,0,1.5c0.9,0.1,1.4,1.4,2,2.7c0.5,1.1,1.1,2.4,1.8,3
		c0.2-0.2,0.5-0.3,0.7-0.3c1.3-0.2,2.8,1.5,4.7,3.9l0.3,0.4c0.5,0.7,1.5,0.8,2,0.8c0-0.1,0.1-0.1,0.1-0.2c0.1-0.3,0.3-0.7,0.5-1.1
		L58.5,100.5z"/>
</g>
<g id="XMLID_158_">
	<path id="XMLID_162_" class="st2" d="M128.8,167.9c0.3-4,1.6-3.9,0.4-8c-0.8-2.8-3-7.2-5-9.9c-1.1,0.7-1.4,1.4-2.2,2.5
		c-0.2-2.5,2-5.6-0.5-8.3c-0.5,0.4-1.2,1.7-1.4,2c-0.2-2.7-0.9-4.4-2.1-6.7c-0.2,0.2-0.6,0.5-0.9,0.5c0-2-2.4-4-3.3-5.7
		c-2.2,1.5-2.4,6.7-2.7,7.4c0,0-0.2,0-0.3-0.9c-0.2-1.8-0.2-3.5-0.6-5.1c-0.3,0.2-0.6,0.3-0.7,0.4c-0.6-2-2.2-2.7-2.7-4.7
		c-2.6,2.1-0.6,8.8-0.9,11.8c0,0.2,0,0.4-0.1,0.6c-0.1,1.1-0.7,2.3-0.9,3.4c0,0.4,0.1-0.8,0.1-0.8c-1.8-2.9-1.5-7.6-4.2-9.7
		c-1.7,2-5.5,7.1-3.3,13.6c-0.1,0.4,0.2,0.1-0.2,0c-2.7,2.3-0.4,4.9-0.3,6.7c-4.3,2.4-2.5,5.5-0.6,10c0.3,0.8,0.7,1.6,0.7,2.4
		c0,1-0.6,1.9-1,2.8c-0.8,2-0.3,4.6,2.8,6.3c-1.3,3.3,1.6,12.7,5.1,13.7c-0.7,2.8,8.5,5.1,12.8,4.5c-0.7-0.5-1.8-0.4-2.1-1.6
		c1.8,0.4,3.7,0.3,5.5-0.3c0.8-0.3,2.2-0.8,1.8-1.6c-0.5-1,2.4-2.7,3.4-4.6c-0.9-0.5-0.3-1.3-0.4-2.3c2.8-0.6,5-3.6,3.4-7.1
		c2.1-0.3,1.5-2.7,1.9-3.6c-0.7-0.5-1.2-1.3-1.6-2.2c-0.1-0.2-0.2-0.5-0.2-0.7c0-0.2,0.2-0.5,0.3-0.7
		C129,171.9,129.5,167.9,128.8,167.9z"/>
	<path id="XMLID_159_" d="M115.2,197.9c-4,0-9.6-1.4-11.4-3.5c-0.4-0.5-0.6-1-0.7-1.4c-1.5-0.8-2.6-2.5-3.3-3.9c-1.5-3-2.5-7.3-2-10
		c-3.1-2.1-3.3-5-2.5-7c0.1-0.3,0.2-0.5,0.3-0.7c0.3-0.6,0.6-1.2,0.6-1.8c0-0.6-0.2-1.2-0.5-1.9l-0.1-0.2c-0.2-0.4-0.3-0.8-0.5-1.2
		c-1.6-3.8-2.9-7,1-9.6c-0.1-0.3-0.2-0.6-0.3-0.9c-0.5-1.5-1.3-3.7,0.7-5.7c-1.3-4.6-0.1-9.3,3.7-13.8l0.5-0.7l0.7,0.5
		c1.8,1.4,2.3,3.7,2.9,5.9c0.2,0.7,0.3,1.3,0.5,2c0-0.1,0-0.1,0-0.2l0,0c0-0.2,0-0.3,0.1-0.5l0,0c0.1-0.9,0-2.1-0.2-3.5
		c-0.3-3.4-0.7-7.2,1.4-8.9l1.1-0.9l0.3,1.3c0.2,0.8,0.7,1.4,1.2,2c0.4,0.5,0.8,1,1.1,1.6l0.8-0.5l0.3,1.2c0.1,0.4,0.2,0.8,0.2,1.2
		c0.4-1.3,1.1-2.5,2.1-3.2l0.8-0.5l0.5,0.8c0.3,0.5,0.7,1.1,1.2,1.7c0.7,0.9,1.5,1.9,1.9,3l0.6-0.6l0.6,1.1c0.8,1.6,1.5,3,1.9,4.7
		c0.1-0.1,0.2-0.2,0.4-0.3l0.6-0.4l0.5,0.5c1.9,2,1.6,4.2,1.2,6c0.1-0.1,0.2-0.2,0.4-0.3l0.7-0.5l0.5,0.7c2.1,2.9,4.3,7.4,5.1,10.2
		c0.8,2.8,0.5,3.9,0.1,5.3c-0.2,0.7-0.4,1.5-0.5,2.6c0,0,0.1,0.1,0.1,0.1c0.6,1,0.2,4.5-0.3,5.2l0,0c-0.1,0.1-0.1,0.2-0.1,0.2
		c0,0,0,0.1,0.1,0.3l0,0c0.3,0.8,0.8,1.4,1.4,1.8l0.5,0.4l-0.3,0.6c0,0.1-0.1,0.5-0.1,0.7c-0.1,0.9-0.2,2.3-1.4,3
		c0.4,1.4,0.4,2.9-0.3,4.2c-0.7,1.4-1.9,2.5-3.4,3c0,0.2,0,0.3-0.1,0.4c0,0.1-0.1,0.3,0,0.4c0,0,0,0,0.1,0l0.8,0.4l-0.4,0.8
		c-0.5,0.9-1.4,1.8-2.1,2.5c-0.4,0.4-1.1,1-1.2,1.4c0.1,0.3,0.2,0.7,0,1c-0.3,0.7-1,1.2-2.4,1.6c-0.9,0.3-1.8,0.5-2.8,0.5l1.4,1
		l-2.1,0.3C116.4,197.9,115.8,197.9,115.2,197.9z M97.6,151.6c-0.9,1.1-0.7,2.1-0.1,3.7c0.2,0.7,0.5,1.3,0.5,1.9l0,0.5l-0.5,0.3
		c-3.1,1.8-2.5,3.5-0.8,7.7c0.2,0.4,0.3,0.8,0.5,1.2l0.1,0.2c0.3,0.8,0.7,1.6,0.6,2.6c0,0.9-0.4,1.8-0.7,2.5
		c-0.1,0.2-0.2,0.4-0.3,0.7c-0.6,1.5-0.3,3.7,2.4,5.2l0.7,0.4l-0.3,0.7c-0.7,1.8,0.1,6.1,1.7,9.3c0.9,1.8,2,3,2.9,3.2l0.8,0.2
		l-0.2,0.8c0,0.1-0.1,0.2,0.2,0.6c1.2,1.4,5.5,2.6,9,2.8c-0.1-0.2-0.2-0.3-0.2-0.5l-0.4-1.4l1.4,0.3c1.7,0.4,3.4,0.3,5-0.2
		c0.6-0.2,1-0.4,1.2-0.5c-0.4-1,0.6-2,1.7-3.1c0.5-0.5,1-1,1.4-1.6c-0.4-0.6-0.3-1.2-0.2-1.7c0-0.3,0.1-0.5,0.1-0.7l-0.1-0.8
		l0.7-0.2c1.3-0.3,2.3-1.1,2.9-2.2c0.5-1.1,0.5-2.3-0.1-3.6l-0.5-1.1l1.2-0.2c0.6-0.1,0.8-0.4,0.9-1.7c0-0.2,0-0.4,0.1-0.6
		c-0.6-0.6-1.1-1.3-1.4-2.1c-0.2-0.3-0.3-0.7-0.3-1.2c0-0.5,0.3-0.9,0.4-1.1c0.2-0.5,0.4-2.2,0.3-3.1l-0.4,0l0.1-1
		c0.1-1.6,0.4-2.6,0.6-3.4c0.3-1.3,0.5-2-0.1-4.3c-0.6-2.4-2.5-6.2-4.3-8.9c-0.3,0.3-0.5,0.6-0.7,0.9c-0.2,0.2-0.3,0.5-0.6,0.8
		l-1.4,1.8l-0.2-2.3c-0.1-1,0.1-2,0.3-2.9c0.3-1.5,0.6-2.8,0-4c-0.1,0.2-0.3,0.4-0.4,0.7c-0.1,0.1-0.1,0.3-0.2,0.3l-1.4,2.4
		l-0.2-2.8c-0.1-2.2-0.7-3.8-1.6-5.5c-0.1,0.1-0.3,0.1-0.4,0.1l-1,0.1l0-1c0-1-1-2.2-1.9-3.4c-0.3-0.3-0.5-0.6-0.7-1
		c-0.9,1.3-1.3,3.8-1.5,5.1c-0.1,0.7-0.2,1.1-0.3,1.3l-0.3,0.7l-0.7-0.2c-0.8-0.2-1-1.3-1-1.7c-0.1-0.7-0.1-1.3-0.2-2
		c0-0.5-0.1-1-0.1-1.5l-0.4,0.6l-0.5-1.7c-0.2-0.8-0.7-1.4-1.2-2c-0.3-0.3-0.5-0.7-0.8-1.1c-0.5,1.6-0.3,4.1-0.1,6.3
		c0.1,1.5,0.3,2.8,0.2,3.9c0,0.2,0,0.4-0.1,0.6c-0.1,0.7-0.3,1.3-0.5,1.9c-0.1,0.3-0.2,0.6-0.3,0.9c0,0.1,0,0.2-0.1,0.4
		c0,0.1,0,0.2-0.1,0.3c-0.2,0.9-0.9,0.9-1,0.8c-0.3,0-0.8-0.4-0.8-1c0-0.2,0-0.3,0.1-0.5c-0.7-1.3-1.1-2.8-1.5-4.2
		c-0.4-1.7-0.8-3.2-1.7-4.3c-3,4-3.9,8.1-2.6,12l0,0.1c0,0,0,0.1,0,0.1l0,0l0,0c0,0.1,0,0.3,0,0.4C98.4,151.3,98,151.6,97.6,151.6z"
		/>
</g>
<g id="XMLID_156_">
	<path id="XMLID_157_" d="M103.7,83.6c1.2-0.4,2.4-0.8,3.6-1.1c1.2-0.3,2.4-0.6,3.7-0.9c0.6-0.1,1.2-0.3,1.9-0.4
		c0.6-0.1,1.2-0.2,1.9-0.3c0.6-0.1,1.2-0.2,1.9-0.3c0.6-0.1,1.3-0.1,1.9-0.2c0.6,0,1.3-0.1,1.9-0.1c0.6,0,1.3,0,1.9-0.1
		c0.6,0,1.3,0,1.9,0c0.6,0,1.3,0.1,1.9,0.1c0.3,0,0.7,0.1,1,0.1s0.6,0.1,0.9,0.1c0.6,0.1,1.2,0.2,1.8,0.2c0.3,0,0.6,0,0.8,0
		c0.1,0,0.2,0,0.3,0c0,0,0,0,0,0c0,0,0,0-0.1,0.1c0,0-0.1,0.1-0.1,0.2c0,0,0,0.1,0,0.1s0-0.1,0-0.2c-0.1-0.2-0.2-0.4-0.4-0.7
		l-0.8-1.2l1.4-0.2c0.5-0.1,1-0.1,1.5-0.1c0.5,0,1,0.2,1.5,0.3c0.5,0.2,0.9,0.4,1.3,0.6c0.4,0.2,0.8,0.5,1.1,0.8
		c0.2,0.1,0.3,0.3,0.5,0.4l0.5,0.4c0.3,0.3,0.6,0.5,1,0.8c0.3,0.2,0.7,0.4,1.1,0.6c0.2,0.1,0.4,0.1,0.6,0.2c0.2,0,0.4,0.1,0.6,0.1
		c-0.2,0.1-0.4,0.1-0.6,0.1c-0.2,0-0.4,0-0.7,0c-0.4,0-0.9-0.2-1.3-0.3c-0.4-0.2-0.8-0.4-1.2-0.6c-0.2-0.1-0.4-0.2-0.6-0.3l-0.6-0.3
		c-0.4-0.2-0.7-0.4-1.1-0.5c-0.4-0.2-0.7-0.3-1.1-0.4c-0.4-0.1-0.7-0.1-1.1-0.1c-0.4,0-0.7,0-1,0.1l0.6-1.5c0.2,0.3,0.4,0.6,0.6,1
		c0.1,0.2,0.2,0.4,0.2,0.7c0,0.2,0,0.3,0,0.5c0,0.2-0.2,0.4-0.3,0.6c-0.1,0.2-0.3,0.3-0.4,0.4c-0.1,0.1-0.3,0.1-0.4,0.2
		c-0.2,0.1-0.4,0.1-0.7,0.1c-0.4,0-0.7,0-1.1,0c-0.7,0-1.3-0.1-2-0.2c-0.3,0-0.6-0.1-0.9-0.1c-0.3,0-0.6-0.1-0.9-0.1
		c-0.6-0.1-1.2-0.1-1.8-0.2c-0.6,0-1.2-0.1-1.8-0.1c-0.6,0-1.2,0-1.8,0c-0.6,0-1.2,0-1.9,0c-0.6,0-1.2,0-1.9,0.1
		c-0.6,0-1.2,0.1-1.9,0.1c-0.6,0-1.2,0.1-1.9,0.2c-0.6,0-1.2,0.1-1.9,0.2c-0.6,0.1-1.2,0.1-1.9,0.2c-0.6,0.1-1.2,0.1-1.9,0.2
		c-0.6,0.1-1.2,0.2-1.9,0.3L103.7,83.6z"/>
</g>
<g id="XMLID_151_">

		<radialGradient id="XMLID_227_" cx="128.6551" cy="899.4806" r="2.9745" gradientTransform="matrix(0.9999 0 0 -1 5.927479e-002 993.6398)" gradientUnits="userSpaceOnUse">
		<stop  offset="0" style="stop-color:#C79628"/>
		<stop  offset="0.357" style="stop-color:#C59427"/>
		<stop  offset="0.6119" style="stop-color:#BD8E27"/>
		<stop  offset="0.8342" style="stop-color:#AE8525"/>
		<stop  offset="1" style="stop-color:#9F7C25"/>
	</radialGradient>
	<path id="XMLID_155_" class="st7" d="M131.8,92.1c-0.3,2.2-0.1,5.9-2.8,4.7c-2.7-1.3-4.6-1.4-2.7-1.9
		C128.2,94.4,132.1,89.7,131.8,92.1z"/>
	<path id="XMLID_152_" d="M130,97.6c-0.4,0-0.8-0.1-1.2-0.3c-0.9-0.4-1.7-0.7-2.3-0.9c-1-0.4-1.6-0.6-1.5-1.2c0-0.6,0.7-0.8,1.2-0.9
		c0.6-0.2,1.7-1.1,2.7-1.8c1.5-1.2,2.4-2,3.2-1.6c0.4,0.2,0.5,0.6,0.5,1.3l0,0c0,0.3-0.1,0.6-0.1,1c-0.1,1.7-0.3,3.6-1.5,4.2
		C130.6,97.5,130.3,97.6,130,97.6z M127.1,95.2c0.6,0.2,1.4,0.5,2.2,0.9c0.3,0.1,0.7,0.3,1,0.1c0.6-0.3,0.7-2.1,0.8-3.2
		c0-0.3,0-0.6,0.1-0.8c-0.4,0.3-1.1,0.8-1.6,1.2C128.7,94.1,127.9,94.8,127.1,95.2z"/>
</g>
<g id="XMLID_146_">

		<radialGradient id="XMLID_228_" cx="151.1179" cy="905.2838" r="3.253" gradientTransform="matrix(0.9999 0 0 -1 5.927479e-002 993.6398)" gradientUnits="userSpaceOnUse">
		<stop  offset="0" style="stop-color:#C79628"/>
		<stop  offset="0.357" style="stop-color:#C59427"/>
		<stop  offset="0.6119" style="stop-color:#BD8E27"/>
		<stop  offset="0.8342" style="stop-color:#AE8525"/>
		<stop  offset="1" style="stop-color:#9F7C25"/>
	</radialGradient>
	<path id="XMLID_150_" class="st8" d="M151.2,86.3c1,0.6,5.4,2.3,3.3,4.4c0,0-7.5,0.4-7.4-1.5C147.3,87.2,149,85.3,151.2,86.3z"/>
	<path id="XMLID_147_" d="M152.9,91.4c-2,0-4.9-0.2-6-1.2c-0.3-0.3-0.4-0.7-0.4-1.1c0.1-1.4,0.8-2.7,1.9-3.3c0.9-0.5,2-0.6,3-0.1
		l0.1,0c0.1,0.1,0.4,0.2,0.7,0.4c1.3,0.7,3.2,1.7,3.4,3.1c0.1,0.7-0.1,1.3-0.7,1.9l-0.2,0.2l-0.3,0
		C154.3,91.4,153.7,91.4,152.9,91.4z M150.1,86.6c-0.3,0-0.6,0.1-0.9,0.3c-0.7,0.4-1.2,1.4-1.3,2.3c0,0,0,0,0.1,0.1
		c0.7,0.7,4.1,0.9,6.4,0.8c0.2-0.3,0.2-0.5,0.2-0.6c-0.1-0.8-1.9-1.7-2.8-2.2c-0.3-0.2-0.6-0.3-0.8-0.4
		C150.6,86.7,150.3,86.6,150.1,86.6z"/>
</g>
<g id="XMLID_141_">
	<path id="XMLID_145_" class="st5" d="M143.2,124.2c1.9,1.1,2.8,6.8-0.1,6c-2.9-0.7-9.2,2.6-8.9,0.7
		C134.6,129,141.1,122.9,143.2,124.2z"/>
	<path id="XMLID_142_" d="M135,132.3c-0.5,0-0.8-0.1-1.1-0.4c-0.2-0.2-0.5-0.5-0.4-1.2c0.3-1.9,4.4-5.7,7.1-7c1.3-0.6,2.3-0.7,3-0.3
		l0,0c1.6,1,2.7,4.4,1.9,6.3c-0.4,1.1-1.4,1.5-2.6,1.2c-1.2-0.3-3.3,0.3-5,0.7C136.7,132,135.7,132.3,135,132.3z M142.6,124.8
		c-0.3,0-0.7,0.1-1.3,0.4c-2.5,1.2-5.5,4.2-6.1,5.5c0.6-0.1,1.6-0.3,2.4-0.5c2-0.5,4.2-1.1,5.8-0.7c0.5,0.1,0.6,0,0.7-0.3
		c0.5-1.1-0.3-3.7-1.2-4.3C142.8,124.8,142.7,124.8,142.6,124.8z"/>
</g>
<g id="XMLID_136_">

		<radialGradient id="XMLID_229_" cx="137.4629" cy="921.7226" r="2.1613" gradientTransform="matrix(0.9999 0 0 -1 5.927479e-002 993.6398)" gradientUnits="userSpaceOnUse">
		<stop  offset="0" style="stop-color:#C79628"/>
		<stop  offset="0.357" style="stop-color:#C59427"/>
		<stop  offset="0.6119" style="stop-color:#BD8E27"/>
		<stop  offset="0.8342" style="stop-color:#AE8525"/>
		<stop  offset="1" style="stop-color:#9F7C25"/>
	</radialGradient>
	<path id="XMLID_140_" class="st9" d="M139.2,70.2c1,0.6,0.7,0.7-1.3,2.8c0,0-2.8,2-2.7,0.1C135.3,71.1,137.1,69.2,139.2,70.2z"/>
	<path id="XMLID_137_" d="M135.8,74.6c-0.2,0-0.5,0-0.7-0.2c-0.3-0.2-0.7-0.5-0.6-1.4c0.1-1.4,0.8-2.7,1.9-3.3c0.9-0.5,2-0.6,3-0.1
		l0.1,0c0.3,0.2,0.8,0.5,0.8,1c0.1,0.6-0.3,1-1.3,2.1c-0.2,0.2-0.4,0.4-0.7,0.7l0,0l-0.1,0C137.8,73.9,136.7,74.6,135.8,74.6z
		 M135.9,73.3C135.9,73.3,135.9,73.3,135.9,73.3c0.3,0,1.1-0.3,1.7-0.8c0.2-0.3,0.4-0.5,0.6-0.7c0.4-0.4,0.7-0.8,0.9-1
		c0,0-0.1-0.1-0.1-0.1c-0.6-0.3-1.2-0.3-1.8,0.1c-0.7,0.4-1.2,1.4-1.3,2.3C135.8,73.2,135.9,73.3,135.9,73.3z"/>
</g>
<g id="XMLID_134_">
	<path id="XMLID_135_" d="M126.2,71c0,0-2.8-2.6-2.8-2.8c0.6-0.5,2.7-2,3.2-5c0-0.2,0-0.4-0.1-0.5c0-0.2-0.1-0.3-0.1-0.5
		c-0.1-0.3-0.2-0.6-0.4-0.8c-0.1-0.3-0.3-0.5-0.5-0.7c-0.2-0.2-0.4-0.3-0.6-0.5c-0.1-0.1-0.2-0.1-0.3-0.2c-0.1,0-0.2-0.1-0.3-0.1
		c-0.1,0-0.2-0.1-0.2-0.1c-0.1,0-0.1,0-0.2-0.1c-0.1,0-0.2-0.1-0.2-0.1s0.1,0,0.2,0c0.1,0,0.3-0.1,0.4-0.1c0.1,0,0.2,0,0.3,0
		c0.1,0,0.3,0,0.4,0c0.3,0,0.6,0.1,1,0.2c0.4,0.1,0.7,0.4,1.1,0.7c1.5,1,1.6,3.4,1.6,3.9c0,2.3-1,4.2-1.3,4.8s-0.6,1.1-0.8,1.4
		c-0.1,0.2-0.2,0.3-0.3,0.4C126.3,71,126.2,71,126.2,71z"/>
</g>
<g id="XMLID_129_">
	<path id="XMLID_133_" class="st5" d="M110.8,107.7c2,0.9,4.7-1.2,2.7,1c-2,2.2-6.8,7.1-6.7,5.1
		C106.9,111.8,108.6,106.7,110.8,107.7z"/>
	<path id="XMLID_130_" d="M107,115c-0.2,0-0.3-0.1-0.4-0.1c-0.2-0.1-0.7-0.4-0.6-1.2c0.1-1.4,1.2-5.5,3.1-6.6c0.7-0.4,1.4-0.4,2-0.1
		l0,0c0.7,0.3,1.6,0.1,2.2,0c0.5-0.1,1.2-0.3,1.5,0.3c0.4,0.6-0.2,1.2-0.8,1.9C109.3,114.2,107.7,115,107,115z M110.2,108.3
		c-0.1,0-0.2,0-0.3,0.1c-1,0.6-1.9,3-2.2,4.6c0.9-0.7,2.5-2.1,4.6-4.3c-0.6,0-1.2,0-1.8-0.3l0,0
		C110.4,108.4,110.3,108.3,110.2,108.3z"/>
</g>
<g id="XMLID_124_">
	<path id="XMLID_128_" class="st5" d="M78,133.3c2,0.9,5.3-0.1,3.3,2.1c-2,2.2-7.4,5.9-7.3,4C74.1,137.5,75.9,132.3,78,133.3z"/>
	<path id="XMLID_125_" d="M74.5,140.7c-0.3,0-0.4-0.1-0.5-0.1c-0.5-0.2-0.8-0.7-0.7-1.3c0.1-1.4,1.2-5.5,3.1-6.6
		c0.7-0.4,1.4-0.4,2-0.1l0,0c0.6,0.3,1.4,0.3,2.1,0.4c1,0.1,1.9,0.2,2.2,1c0.3,0.7-0.2,1.4-0.8,2c-0.9,1-2.5,2.3-3.9,3.3
		C76,140.5,75,140.7,74.5,140.7z M77.5,134c-0.1,0-0.2,0-0.3,0.1c-1.1,0.7-2.1,3.4-2.3,5c1.2-0.4,4.3-2.5,5.9-4.2
		c0.1-0.1,0.1-0.1,0.2-0.2c-0.2,0-0.4,0-0.6-0.1c-0.8-0.1-1.8-0.2-2.6-0.6C77.6,134,77.5,134,77.5,134z"/>
</g>
<g id="XMLID_119_">

		<radialGradient id="XMLID_230_" cx="2247.009" cy="-964.9208" r="4.7856" gradientTransform="matrix(-0.5752 0.8179 0.8178 0.5753 2192.4075 -1203.3109)" gradientUnits="userSpaceOnUse">
		<stop  offset="0" style="stop-color:#C79628"/>
		<stop  offset="0.357" style="stop-color:#C59427"/>
		<stop  offset="0.6119" style="stop-color:#BD8E27"/>
		<stop  offset="0.8342" style="stop-color:#AE8525"/>
		<stop  offset="1" style="stop-color:#9F7C25"/>
	</radialGradient>
	<path id="XMLID_123_" class="st10" d="M115.6,81.4c-1.9,0.5-7.5,0.3-10.5-1.1c-0.5-0.6-0.6-1.5-0.1-2.1c1.5-2.2,3.3-5.4,5.1-4
		c2.1,1.6,8.5,5.1,6.2,7C116.1,81.2,115.8,81.3,115.6,81.4z"/>
	<path id="XMLID_120_" d="M112.9,82.3c-2.6,0-6-0.4-8.1-1.4l-0.1-0.1l-0.1-0.1c-0.7-0.8-0.8-2-0.2-2.9c0.1-0.2,0.3-0.4,0.4-0.6
		c1.2-1.8,2.5-3.8,4-4c0.6-0.1,1.1,0.1,1.6,0.5c0.4,0.3,1,0.7,1.7,1.2c2.9,2,5.1,3.6,5.2,5.2c0,0.4-0.1,1-0.7,1.5
		c-0.2,0.2-0.5,0.3-0.8,0.4l0,0C115.2,82.2,114.1,82.3,112.9,82.3z M105.5,79.7c3,1.3,8.4,1.5,9.9,1c0.2-0.1,0.3-0.1,0.3-0.1l0,0
		c0.3-0.2,0.3-0.4,0.3-0.5c-0.1-1.1-2.9-3.1-4.6-4.2c-0.7-0.5-1.3-0.9-1.8-1.3c-0.3-0.2-0.5-0.2-0.6-0.2c-1,0.2-2.2,2.1-3.1,3.5
		c-0.1,0.2-0.3,0.4-0.4,0.6C105.2,78.8,105.3,79.4,105.5,79.7z"/>
</g>
<g id="XMLID_114_">

		<radialGradient id="XMLID_231_" cx="5948.2227" cy="4918.8301" r="3.6832" gradientTransform="matrix(-0.4341 -0.9008 -0.9007 0.4342 7137.415 3295.9668)" gradientUnits="userSpaceOnUse">
		<stop  offset="0" style="stop-color:#C79628"/>
		<stop  offset="0.357" style="stop-color:#C59427"/>
		<stop  offset="0.6119" style="stop-color:#BD8E27"/>
		<stop  offset="0.8342" style="stop-color:#AE8525"/>
		<stop  offset="1" style="stop-color:#9F7C25"/>
	</radialGradient>
	<path id="XMLID_118_" class="st11" d="M121.5,74.8c0.3-1.2,2-5.2,4.1-5.8c0.5-0.1,1.1,0.1,1.3,0.6c0.8,1.6,2.8,5.7,1.4,6.3
		c-1.6,0.7-6.4,1.3-6.8-0.7C121.4,75.1,121.4,75,121.5,74.8z"/>
	<path id="XMLID_115_" d="M124.4,77.2c-1,0-1.9-0.1-2.6-0.5c-0.7-0.4-1-1-1-1.4l0,0c0-0.2,0-0.5,0-0.7l0,0c0.2-0.9,1.9-5.6,4.5-6.2
		c0.8-0.2,1.6,0.2,2,1c1.1,2.1,2.3,5,1.8,6.3c-0.1,0.4-0.4,0.7-0.8,0.8C127.6,76.9,126,77.2,124.4,77.2z M122.1,75.2
		c0,0.1,0.1,0.3,0.4,0.5c1.2,0.7,4.3,0.2,5.5-0.3c0.3-0.2,0-2-1.7-5.4l0,0c-0.1-0.2-0.3-0.3-0.5-0.3c-1.6,0.4-3.2,3.9-3.6,5.3
		C122.1,75.1,122.1,75.1,122.1,75.2z"/>
</g>
<g id="XMLID_112_">
	<path id="XMLID_113_" d="M113.8,86.3c0,0-0.3,0-0.8,0c-0.5,0-1.3,0-2.2,0.1c-0.4,0-0.9,0-1.5,0.1c-0.5,0-1.1,0.1-1.6,0.2
		c-0.5,0.1-1.1,0.2-1.6,0.3c-0.3,0-0.5,0.1-0.8,0.1l-0.1,0h0l0,0l0,0l-0.2,0.1l-0.5,0.1c-0.6,0.1-1.2,0.3-1.7,0.4
		c-0.6,0.1-1.1,0.3-1.6,0.5c-0.5,0.2-1,0.4-1.4,0.7c-0.4,0.3-0.8,0.5-1.1,0.8c-0.3,0.3-0.5,0.6-0.7,0.9c-0.2,0.3-0.3,0.6-0.4,0.8
		c-0.1,0.2-0.1,0.4-0.2,0.6c0,0.1,0,0.2,0,0.2l-0.2,0c0,0,0-0.1,0-0.2c0-0.1,0-0.4,0-0.6c0-0.3,0.1-0.6,0.2-1
		c0.1-0.4,0.4-0.8,0.6-1.2c0.3-0.4,0.7-0.8,1.1-1.1c0.4-0.4,0.9-0.7,1.5-0.9c0.5-0.3,1.1-0.5,1.7-0.7c0.6-0.2,1.2-0.4,1.8-0.6
		l0.4-0.1l0.2-0.1l0,0c0,0,0,0,0,0l0,0l0.1,0c0.3-0.1,0.6-0.2,1-0.3c0.6-0.1,1.3,0,1.9,0c0.6,0,1.2,0,1.7,0.1c0.5,0,1,0.1,1.5,0.2
		c0.9,0.1,1.7,0.3,2.2,0.4c0.5,0.1,0.8,0.2,0.8,0.2L113.8,86.3z"/>
</g>
<g id="XMLID_110_">
	<path id="XMLID_111_" d="M112.1,89.7C112.1,89.7,112,89.7,112.1,89.7c-0.1-0.1-0.1-0.1-0.2-0.2c-0.1-0.1-0.3-0.2-0.6-0.3
		c-0.3-0.1-0.6-0.1-1-0.2c-0.4,0-0.9,0-1.4,0c-0.5,0-1,0-1.6,0.1c-0.6,0.1-1.2,0.1-1.8,0.3c-0.6,0.1-1.2,0.2-1.9,0.4
		c-0.6,0.2-1.2,0.4-1.8,0.6l-0.1,0l0,0h0l0,0c0,0,0,0,0,0l-0.1,0l-0.2,0.1c-0.1,0.1-0.3,0.1-0.4,0.2c-0.1,0.1-0.3,0.1-0.4,0.2
		c-0.1,0.1-0.3,0.1-0.4,0.2c-0.5,0.3-1.1,0.6-1.6,1c-0.5,0.3-0.9,0.7-1.3,1c-0.1,0.1-0.2,0.2-0.3,0.3c-0.1,0.1-0.2,0.2-0.2,0.3
		c-0.2,0.2-0.3,0.4-0.4,0.5c-0.3,0.4-0.4,0.7-0.6,1.1c-0.1,0.3-0.2,0.7-0.3,0.9c-0.1,0.3-0.1,0.5-0.1,0.6c0,0.1,0,0.2,0,0.2
		l-0.7,0.1c0,0,0-0.1-0.1-0.3c0-0.2-0.1-0.4-0.1-0.8c0-0.2,0-0.4,0-0.5c0-0.2,0-0.4,0-0.7c0-0.2,0.1-0.5,0.2-0.7
		c0.1-0.3,0.2-0.5,0.3-0.8c0.2-0.5,0.6-1.1,1-1.6c0.4-0.5,0.9-1,1.5-1.4s1.2-0.8,1.8-1.1c0.2-0.1,0.3-0.1,0.5-0.2
		c0.2-0.1,0.3-0.1,0.5-0.2c0.2-0.1,0.3-0.1,0.5-0.2l0.2-0.1l0.1,0l0.1,0l0.1,0c0.7-0.2,1.4-0.4,2.1-0.5c0.7-0.1,1.4-0.2,2-0.2
		c0.7,0,1.3,0,1.9,0c0.6,0,1.2,0.1,1.7,0.2c1,0.1,1.9,0.4,2.4,0.7c0.3,0.2,0.5,0.3,0.6,0.4C111.9,89.5,112,89.6,112.1,89.7
		C112,89.7,112.1,89.7,112.1,89.7z"/>
</g>
<g id="XMLID_108_">
	<path id="XMLID_109_" d="M109.9,95.7c0,0-0.1,0-0.2,0c-0.1,0-0.4,0-0.6,0c-0.1,0-0.3,0-0.4,0c-0.2,0-0.3,0-0.5,0
		c-0.2,0-0.4,0-0.6,0c-0.2,0-0.4,0-0.6,0c-0.4,0-0.9,0.1-1.4,0.2c-0.1,0-0.3,0-0.4,0.1c-0.1,0-0.3,0-0.4,0.1c-0.1,0-0.3,0-0.4,0.1
		c-0.1,0-0.3,0.1-0.4,0.1c-0.5,0.1-1.1,0.3-1.6,0.5c-0.5,0.2-1.1,0.4-1.6,0.6c-0.3,0.1-0.5,0.2-0.8,0.4c-0.3,0.1-0.5,0.3-0.8,0.4
		c-0.2,0.1-0.5,0.3-0.7,0.4c-0.1,0.1-0.2,0.1-0.3,0.2c-0.1,0.1-0.2,0.2-0.3,0.2c0,0-0.1,0.1-0.1,0.1l-0.2,0.2
		c-0.1,0.1-0.2,0.2-0.3,0.3c-0.2,0.2-0.4,0.4-0.7,0.5c-0.2,0.2-0.4,0.3-0.5,0.4c-0.1,0.1-0.2,0.3-0.3,0.5c-0.2,0.4-0.3,0.8-0.4,1.2
		c-0.1,0.4-0.2,0.7-0.2,1c-0.1,0.3-0.1,0.5-0.1,0.6c0,0.1,0,0.2,0,0.2s0-0.3-0.1-0.9c0-0.3,0-0.6-0.1-1c0-0.4,0-0.8,0.1-1.3
		c0-0.3,0.1-0.5,0.3-0.8c0.1-0.3,0.3-0.5,0.5-0.7c0.2-0.2,0.4-0.4,0.5-0.6c0.1-0.1,0.2-0.2,0.2-0.3c0.1-0.1,0.2-0.2,0.3-0.4
		c0.1-0.2,0.2-0.3,0.4-0.4c0.1-0.1,0.2-0.2,0.4-0.4c0.2-0.2,0.5-0.4,0.8-0.6c0.3-0.2,0.5-0.4,0.8-0.5c0.3-0.2,0.6-0.3,0.9-0.5
		c1.2-0.6,2.5-1,3.7-1.1c0.2,0,0.3,0,0.5,0c0.1,0,0.3,0,0.4,0c0.3,0,0.6,0,0.9,0c0.1,0,0.3,0,0.4,0c0.1,0,0.3,0,0.4,0
		c0.3,0,0.5,0.1,0.8,0.1c0.2,0,0.5,0.1,0.7,0.1c0.2,0.1,0.4,0.1,0.6,0.2c0.2,0.1,0.4,0.1,0.5,0.2c0.2,0.1,0.3,0.1,0.4,0.2
		c0.3,0.1,0.4,0.2,0.6,0.3C109.8,95.6,109.9,95.7,109.9,95.7z"/>
</g>
<path id="XMLID_107_" d="M60.9,96.6c0,0,0,0,0.1,0c0.1,0,0.2,0,0.4,0c0.3,0,0.7,0.1,1.3,0.2c0.5,0.1,1.1,0.3,1.7,0.7
	c0.6,0.3,1.2,0.7,1.7,1.3c0.3,0.3,0.5,0.6,0.7,0.9c0.2,0.3,0.4,0.6,0.5,1c0.1,0.3,0.2,0.7,0.3,1c0.1,0.3,0.1,0.6,0.1,0.9
	c0,0.3,0,0.5-0.1,0.8c0,0.1,0,0.2-0.1,0.3c0,0.1-0.1,0.2-0.1,0.2c-0.1,0.1-0.1,0.3-0.2,0.3c0,0.1-0.1,0.1-0.1,0.1s0,0,0-0.1
	c0-0.1-0.1-0.2-0.1-0.3c-0.1-0.1-0.1-0.3-0.2-0.5c-0.1-0.2-0.1-0.4-0.2-0.6c-0.1-0.2-0.2-0.4-0.3-0.7c0-0.1-0.1-0.1-0.1-0.2
	c0-0.1-0.1-0.1-0.1-0.2c-0.1-0.1-0.1-0.2-0.2-0.3c-0.2-0.2-0.3-0.5-0.5-0.7c-0.2-0.2-0.4-0.4-0.6-0.6c-0.4-0.4-0.9-0.8-1.3-1.2
	c-0.2-0.2-0.5-0.4-0.7-0.5c-0.2-0.2-0.4-0.3-0.6-0.5c-0.4-0.3-0.7-0.6-0.9-0.8C61.2,96.8,61.1,96.7,60.9,96.6
	C61,96.6,60.9,96.6,60.9,96.6z"/>
<path id="XMLID_106_" d="M62.9,91.8c0,0,0,0,0.1,0c0.1,0,0.2-0.1,0.4-0.1c0.3-0.1,0.7-0.1,1.3-0.1c0.5,0,1.1,0,1.8,0.2
	c0.7,0.1,1.4,0.4,2,0.7c0.3,0.2,0.6,0.4,0.9,0.6c0.3,0.2,0.5,0.5,0.8,0.8c0.2,0.3,0.4,0.6,0.5,0.9c0.1,0.3,0.2,0.6,0.3,0.9
	c0.1,0.3,0.1,0.5,0.1,0.7c0,0.1,0,0.2,0,0.3c0,0.1,0,0.2,0,0.3c0,0.2,0,0.3-0.1,0.4c0,0.1,0,0.1,0,0.1s0,0-0.1-0.1
	c0-0.1-0.1-0.2-0.2-0.3c-0.1-0.1-0.2-0.3-0.3-0.4c-0.1-0.2-0.2-0.3-0.4-0.5c-0.1-0.2-0.3-0.4-0.5-0.6c0,0-0.1-0.1-0.1-0.1
	c0,0-0.1-0.1-0.1-0.1c-0.1-0.1-0.2-0.2-0.3-0.3c-0.2-0.2-0.4-0.3-0.7-0.5c-0.2-0.2-0.5-0.3-0.7-0.5c-0.5-0.3-1.1-0.5-1.6-0.8
	c-0.3-0.1-0.5-0.2-0.8-0.3c-0.3-0.1-0.5-0.2-0.7-0.3c-0.5-0.2-0.9-0.4-1.1-0.5c-0.1-0.1-0.2-0.1-0.3-0.2
	C62.9,91.9,62.9,91.8,62.9,91.8z"/>
<path id="XMLID_105_" d="M56.7,97.8C56.7,97.8,56.7,97.8,56.7,97.8c0.1,0.2,0.2,0.3,0.3,0.4c0.1,0.1,0.2,0.3,0.3,0.4
	c0.1,0.2,0.3,0.3,0.4,0.5c0.3,0.4,0.6,0.8,1,1.3c0.2,0.2,0.4,0.5,0.5,0.7c0.2,0.2,0.4,0.5,0.6,0.7c0.4,0.5,0.8,0.9,1.2,1.3
	c0.2,0.2,0.4,0.4,0.6,0.5c0.2,0.2,0.4,0.3,0.5,0.4c0.2,0.1,0.4,0.2,0.5,0.2c0.2,0.1,0.3,0.1,0.5,0.1c0.1,0,0.1,0,0.2,0
	c0.1,0,0.1,0,0.1,0c0.1,0,0.1,0,0.1,0s0,0-0.1,0.1c0,0-0.1,0.1-0.1,0.1c0,0-0.1,0.1-0.2,0.1c-0.1,0.1-0.3,0.2-0.6,0.3
	c-0.1,0-0.1,0-0.2,0c-0.1,0-0.1,0-0.2,0c-0.1,0-0.3,0-0.4,0c-0.2,0-0.3,0-0.5-0.1c-0.1,0-0.2,0-0.2-0.1c-0.1,0-0.2-0.1-0.2-0.1
	c-0.3-0.1-0.6-0.3-0.9-0.5c-0.3-0.2-0.6-0.4-0.8-0.7c-0.3-0.2-0.5-0.5-0.7-0.8c-0.2-0.3-0.4-0.6-0.6-0.9c-0.2-0.3-0.3-0.6-0.5-0.9
	c-0.1-0.3-0.3-0.6-0.4-0.9c-0.1-0.3-0.2-0.6-0.2-0.8c-0.1-0.3-0.1-0.5-0.1-0.7c0-0.2,0-0.4,0-0.6c0-0.2,0-0.3,0-0.4
	C56.7,97.8,56.7,97.8,56.7,97.8z"/>
<path id="XMLID_104_" d="M65,85.8c0,0,0,0,0.1,0c0.1,0,0.2,0,0.4,0c0.3,0,0.8,0,1.3,0c0.5,0.1,1.1,0.2,1.8,0.4
	c0.6,0.2,1.3,0.5,1.9,1c0.3,0.2,0.6,0.5,0.8,0.7c0.3,0.3,0.5,0.6,0.7,0.9c0.2,0.3,0.3,0.6,0.4,0.9c0.1,0.3,0.2,0.6,0.2,0.9
	c0,0.3,0,0.5,0,0.8c0,0.1,0,0.2,0,0.3c0,0.1,0,0.2,0,0.3c0,0.2-0.1,0.3-0.1,0.4c0,0.1,0,0.1,0,0.1s0,0-0.1-0.1
	c0-0.1-0.1-0.2-0.2-0.3c-0.1-0.1-0.1-0.3-0.2-0.5c-0.1-0.2-0.2-0.4-0.3-0.6c-0.1-0.2-0.3-0.4-0.4-0.6c0-0.1-0.1-0.1-0.1-0.2
	c0,0-0.1-0.1-0.1-0.2c-0.1-0.1-0.2-0.2-0.3-0.3c-0.2-0.2-0.4-0.4-0.6-0.6c-0.2-0.2-0.4-0.4-0.7-0.5c-0.5-0.4-1-0.7-1.5-1
	c-0.3-0.1-0.5-0.3-0.7-0.4c-0.2-0.1-0.5-0.3-0.7-0.4c-0.4-0.2-0.8-0.5-1.1-0.6c-0.1-0.1-0.2-0.2-0.3-0.2C65.1,85.8,65,85.8,65,85.8z
	"/>
<path id="XMLID_103_" d="M50,95c0,0,0,0,0.1,0.1c0.1,0.1,0.1,0.2,0.2,0.3c0.1,0.1,0.2,0.3,0.3,0.5c0.1,0.2,0.3,0.4,0.4,0.6
	c0.2,0.2,0.3,0.4,0.5,0.7c0.2,0.2,0.4,0.5,0.6,0.7c0.2,0.2,0.4,0.5,0.6,0.8c0.2,0.3,0.4,0.5,0.6,0.8c0.1,0.1,0.2,0.3,0.3,0.4
	c0.1,0.1,0.2,0.3,0.3,0.4c0.1,0.1,0.2,0.3,0.3,0.4c0.1,0.1,0.2,0.2,0.3,0.4c0.2,0.2,0.4,0.5,0.6,0.7c0.1,0.1,0.2,0.2,0.3,0.3
	c0.1,0.1,0.2,0.2,0.3,0.3c0.1,0.1,0.2,0.2,0.3,0.3c0.1,0.1,0.2,0.2,0.2,0.3c0.1,0.2,0.3,0.3,0.4,0.4c0.1,0.1,0.2,0.2,0.2,0.3
	c0.1,0.1,0.1,0.1,0.1,0.1s0,0-0.1,0c-0.1,0-0.2,0-0.4-0.1c-0.2,0-0.4-0.1-0.6-0.2c-0.2-0.1-0.5-0.2-0.7-0.3
	c-0.2-0.1-0.5-0.3-0.8-0.4c-0.3-0.2-0.6-0.4-0.8-0.6c-0.1-0.1-0.3-0.2-0.4-0.3c-0.1-0.1-0.3-0.2-0.4-0.4c-0.1-0.1-0.3-0.3-0.4-0.4
	c-0.1-0.1-0.3-0.3-0.4-0.4c-0.2-0.3-0.5-0.6-0.7-0.9c-0.2-0.3-0.4-0.6-0.5-0.9c-0.1-0.3-0.3-0.6-0.4-0.9c-0.1-0.2-0.1-0.3-0.2-0.4
	c0-0.1-0.1-0.3-0.1-0.4c-0.1-0.3-0.1-0.5-0.1-0.8c0-0.2,0-0.4,0-0.6c0-0.2,0-0.3,0-0.4C50,95,50,95,50,95z"/>
<path id="XMLID_102_" d="M103.3,140.8c0,0,0,0,0.1,0.1c0,0.1,0.1,0.2,0.2,0.3c0.2,0.3,0.4,0.7,0.6,1.2c0.1,0.3,0.2,0.5,0.4,0.9
	c0.1,0.3,0.2,0.6,0.4,1c0.1,0.3,0.2,0.7,0.3,1.1c0.1,0.4,0.2,0.7,0.3,1.1c0.1,0.4,0.2,0.8,0.2,1.1c0.1,0.4,0.1,0.8,0.1,1.1
	c0,0.4,0,0.7,0,1.1c0,0.2,0,0.3-0.1,0.5c0,0.2,0,0.3-0.1,0.5c0,0.1-0.1,0.3-0.1,0.4c0,0.1-0.1,0.3-0.1,0.4c-0.1,0.2-0.2,0.4-0.3,0.6
	c-0.1,0.2-0.2,0.3-0.2,0.3c0,0.1-0.1,0.1-0.1,0.1s0,0,0-0.1c0-0.1,0-0.2,0-0.4c0-0.2,0-0.4,0-0.6c0-0.2,0-0.5-0.1-0.7
	c0-0.1,0-0.3-0.1-0.4c0-0.1,0-0.3-0.1-0.4c-0.1-0.3-0.1-0.6-0.2-1c-0.1-0.7-0.3-1.4-0.5-2.1c-0.1-0.4-0.2-0.7-0.2-1.1
	c0-0.2-0.1-0.4-0.1-0.5c0-0.2-0.1-0.4-0.1-0.5c-0.1-0.7-0.2-1.4-0.2-1.9c0-0.6-0.1-1.1,0-1.4c0-0.2,0-0.3,0-0.4
	C103.3,140.9,103.3,140.8,103.3,140.8z"/>
<path id="XMLID_101_" d="M109.6,135.5c0,0,0.1,0,0.1,0.1c0,0,0.1,0.1,0.2,0.1c0.1,0.1,0.1,0.1,0.2,0.2c0.1,0.2,0.3,0.4,0.4,0.6
	c0.2,0.3,0.3,0.6,0.5,0.9c0.1,0.3,0.3,0.7,0.4,1.1c0.1,0.4,0.3,0.8,0.4,1.2c0.1,0.4,0.2,0.9,0.3,1.3c0.1,0.5,0.1,0.9,0.2,1.4
	c0,0.5,0.1,0.9,0.1,1.4c0,0.5,0,0.9-0.1,1.4c0,0.4-0.1,0.9-0.2,1.3c-0.1,0.4-0.2,0.8-0.3,1.1c-0.1,0.2-0.1,0.3-0.2,0.5
	c-0.1,0.2-0.1,0.3-0.2,0.4c-0.1,0.1-0.1,0.3-0.2,0.4c-0.1,0.1-0.1,0.2-0.2,0.3c-0.1,0.2-0.3,0.3-0.4,0.3c-0.1,0.1-0.1,0.1-0.1,0.1
	s0-0.1,0.1-0.2c0-0.1,0-0.1,0.1-0.2c0-0.1,0-0.2,0.1-0.3c0-0.1,0-0.2,0.1-0.3c0-0.1,0-0.2,0-0.4c0-0.1,0-0.3,0-0.4
	c0-0.2,0-0.3,0-0.5c0-0.3,0-0.7,0-1.1c0-0.1,0-0.2,0-0.3c0-0.1,0-0.2,0-0.3c0-0.2,0-0.4,0-0.6c0-0.2,0-0.4,0-0.6c0-0.2,0-0.4,0-0.7
	c0-0.4-0.1-0.9-0.1-1.3c0-0.4-0.1-0.9-0.1-1.3c0-0.4-0.1-0.9-0.1-1.3c0-0.4-0.1-0.8-0.1-1.2c0-0.4-0.1-0.8-0.1-1.1
	c0-0.3-0.1-0.6-0.1-0.9c0-0.3-0.1-0.5-0.1-0.7c0-0.1,0-0.2-0.1-0.3c0-0.1,0-0.1-0.1-0.2C109.6,135.6,109.6,135.5,109.6,135.5z"/>
<g id="XMLID_95_">
	<path id="XMLID_100_" class="st2" d="M167.5,72.4"/>
	<path id="XMLID_99_" class="st2" d="M173,81.3"/>
	<path id="XMLID_98_" class="st2" d="M168.6,79.8"/>
	<path id="XMLID_97_" class="st2" d="M173.4,86"/>
	<path id="XMLID_96_" d="M173.4,86l-0.2-0.1l-0.2-0.1c-0.2-0.1-0.3-0.2-0.4-0.3c-0.3-0.2-0.6-0.4-0.8-0.7c-0.5-0.5-0.9-1.1-1.2-1.6
		c-0.4-0.6-0.7-1.2-1-1.7c-0.1-0.1-0.2-0.3-0.3-0.4c-0.1-0.1-0.2-0.3-0.3-0.4c-0.1-0.1-0.2-0.2-0.3-0.3c-0.1-0.1-0.2-0.2-0.3-0.3
		l-0.5-0.4l0.6-0.4c0.1-0.1,0.3-0.1,0.4-0.2c0.1,0,0.3-0.1,0.4-0.1c0.3,0,0.5,0,0.7,0.1c0.5,0.1,0.8,0.3,1.2,0.5
		c0.4,0.2,0.7,0.4,1.1,0.6c0.2,0.1,0.3,0.2,0.5,0.3c0.2,0.1,0.3,0.1,0.4,0.2l-0.6,0.4c0-0.1,0-0.1,0-0.2c0-0.1,0-0.2,0-0.3
		c0-0.2,0-0.4-0.1-0.6c0-0.2-0.1-0.4-0.1-0.6c0-0.2-0.1-0.4-0.2-0.6c-0.1-0.4-0.3-0.8-0.4-1.3c-0.1-0.2-0.2-0.4-0.3-0.6
		c-0.1-0.2-0.2-0.4-0.3-0.6L171,76l-0.2-0.3c-0.1-0.2-0.2-0.4-0.4-0.6c-0.1-0.2-0.3-0.4-0.4-0.5l-0.2-0.3l-0.2-0.2
		c-0.1-0.1-0.2-0.2-0.2-0.2l-0.1-0.1l-0.1-0.1c-0.2-0.2-0.3-0.3-0.5-0.4c-0.2-0.1-0.4-0.3-0.6-0.4c-0.2-0.1-0.4-0.2-0.6-0.4
		c0.2,0.1,0.4,0.1,0.7,0.2c0.2,0.1,0.4,0.2,0.6,0.3c0.2,0.1,0.4,0.2,0.6,0.4c0.1,0.1,0.2,0.1,0.3,0.2c0.1,0.1,0.2,0.1,0.3,0.2
		l0.3,0.2l0.3,0.2c0.2,0.2,0.3,0.3,0.5,0.5c0.2,0.2,0.3,0.4,0.5,0.6l0.2,0.3l0.2,0.3c0.1,0.2,0.3,0.4,0.4,0.6
		c0.1,0.1,0.1,0.2,0.2,0.3c0.1,0.1,0.1,0.2,0.2,0.3c0.1,0.2,0.2,0.4,0.3,0.7c0.1,0.2,0.2,0.4,0.2,0.7c0.1,0.2,0.1,0.5,0.2,0.7
		c0.1,0.2,0.1,0.5,0.2,0.7c0,0.2,0.1,0.5,0.1,0.7c0,0.1,0,0.3,0,0.4c0,0.1,0,0.3,0,0.5l-0.1,0.5l-0.5-0.1c-0.3-0.1-0.5-0.2-0.7-0.3
		c-0.2-0.1-0.4-0.2-0.6-0.3c-0.4-0.2-0.7-0.4-1-0.6c-0.3-0.2-0.7-0.4-1-0.5c-0.2-0.1-0.3-0.1-0.5-0.1c-0.1,0-0.2,0-0.3,0.1l0.1-0.8
		c0.1,0.1,0.3,0.3,0.4,0.4c0.1,0.1,0.2,0.3,0.3,0.4c0.1,0.1,0.2,0.3,0.3,0.4c0.1,0.2,0.2,0.3,0.3,0.5c0.3,0.6,0.6,1.2,0.9,1.8
		c0.1,0.3,0.3,0.6,0.4,0.9c0.2,0.3,0.3,0.6,0.5,0.8c0.1,0.1,0.2,0.3,0.3,0.4c0.1,0.1,0.2,0.2,0.3,0.4c0.1,0.1,0.2,0.2,0.4,0.3
		l0.2,0.1L173.4,86z"/>
</g>
<g id="XMLID_91_">
	<path id="XMLID_94_" class="st2" d="M166.8,68.5"/>
	<path id="XMLID_93_" class="st2" d="M164.3,62.3"/>
	<path id="XMLID_92_" d="M164.3,62.3c0,0,0.1,0,0.3,0.1c0.1,0,0.2,0.1,0.3,0.1c0.1,0.1,0.3,0.1,0.4,0.2c0.1,0.1,0.3,0.2,0.5,0.3
		c0.2,0.1,0.3,0.3,0.5,0.5c0.2,0.2,0.3,0.4,0.4,0.6c0.1,0.1,0.1,0.2,0.2,0.3c0.1,0.1,0.1,0.2,0.1,0.3c0,0.1,0.1,0.2,0.1,0.4
		c0,0.1,0.1,0.2,0.1,0.4c0,0.2,0,0.5,0,0.7c0,0.2,0,0.4,0,0.6c0,0.2,0,0.4-0.1,0.6c-0.1,0.3-0.1,0.6-0.2,0.8
		c-0.1,0.2-0.1,0.3-0.1,0.3s0-0.1-0.1-0.3c0-0.2-0.1-0.5-0.1-0.8c0-0.2,0-0.3-0.1-0.5c0-0.2,0-0.4-0.1-0.6c0-0.1,0-0.2,0-0.3
		c0-0.1,0-0.2-0.1-0.3c0-0.1,0-0.2-0.1-0.3c0-0.1,0-0.2-0.1-0.3c-0.1-0.2-0.1-0.4-0.2-0.6c0-0.1-0.1-0.2-0.1-0.3
		c0-0.1-0.1-0.2-0.1-0.3c-0.1-0.2-0.2-0.3-0.3-0.5c-0.1-0.1-0.2-0.3-0.3-0.4c-0.1-0.1-0.2-0.2-0.3-0.3c-0.1-0.1-0.2-0.2-0.3-0.3
		C164.4,62.4,164.3,62.3,164.3,62.3z"/>
</g>
<g id="XMLID_87_">
	<path id="XMLID_90_" class="st2" d="M167.6,62.5"/>
	<path id="XMLID_89_" class="st2" d="M162.8,59.8"/>
	<path id="XMLID_88_" d="M162.8,59.8c0,0,0.1,0,0.2-0.1c0.1,0,0.2-0.1,0.3-0.1c0.1,0,0.2-0.1,0.4-0.1c0.1,0,0.3,0,0.5,0
		c0.2,0,0.4,0,0.5,0.1c0.2,0,0.4,0.1,0.6,0.2c0.1,0,0.2,0.1,0.3,0.1c0.1,0.1,0.2,0.1,0.3,0.2c0.2,0.1,0.3,0.2,0.5,0.4
		c0.1,0.1,0.3,0.3,0.4,0.4c0.1,0.1,0.2,0.3,0.3,0.4c0.1,0.1,0.2,0.3,0.2,0.4c0.1,0.3,0.2,0.5,0.3,0.6c0.1,0.2,0.1,0.3,0.1,0.3
		s-0.1-0.1-0.2-0.2c-0.1-0.1-0.3-0.3-0.5-0.4c-0.1-0.1-0.2-0.2-0.3-0.3c-0.1-0.1-0.2-0.2-0.4-0.3c-0.1-0.1-0.3-0.2-0.4-0.3
		c-0.1-0.1-0.3-0.2-0.4-0.3c-0.1-0.1-0.1-0.1-0.2-0.1c-0.1,0-0.1-0.1-0.2-0.1c-0.1,0-0.1-0.1-0.2-0.1c-0.1,0-0.1-0.1-0.2-0.1
		c-0.1-0.1-0.3-0.1-0.4-0.2c-0.1,0-0.3-0.1-0.4-0.1c-0.1,0-0.2-0.1-0.4-0.1c-0.1,0-0.2,0-0.3-0.1C162.9,59.8,162.8,59.8,162.8,59.8z
		"/>
</g>
<g id="XMLID_83_">
	<path id="XMLID_86_" class="st2" d="M49.1,90.3"/>
	<path id="XMLID_85_" class="st2" d="M50,83.6"/>
	<path id="XMLID_84_" d="M50,83.6c0,0-0.1,0.1-0.2,0.3c-0.1,0.1-0.1,0.2-0.2,0.3c-0.1,0.1-0.1,0.3-0.2,0.4c-0.1,0.2-0.2,0.3-0.2,0.5
		c-0.1,0.2-0.2,0.3-0.2,0.5c0,0.1-0.1,0.2-0.1,0.3c0,0.1,0,0.2-0.1,0.3c0,0.2-0.1,0.4-0.1,0.6c0,0.1,0,0.2,0,0.3c0,0.1,0,0.2,0,0.3
		c0,0.1,0,0.2,0,0.3c0,0.1,0,0.2,0,0.3c0,0.2,0,0.4,0.1,0.6c0,0.2,0,0.4,0.1,0.5c0,0.3,0.1,0.6,0.1,0.8c0,0.2,0,0.3,0,0.3
		S49,90.2,48.9,90c-0.1-0.2-0.2-0.4-0.4-0.7c-0.1-0.2-0.1-0.3-0.2-0.5c-0.1-0.2-0.1-0.4-0.2-0.6c-0.1-0.2-0.1-0.4-0.1-0.7
		c0-0.1,0-0.2,0-0.4c0-0.1,0-0.2,0-0.4c0-0.1,0-0.2,0-0.4c0-0.1,0-0.2,0.1-0.4c0.1-0.2,0.1-0.5,0.3-0.7c0.1-0.2,0.2-0.4,0.3-0.6
		c0.1-0.2,0.3-0.3,0.4-0.4c0.1-0.1,0.3-0.2,0.4-0.3c0.1-0.1,0.2-0.2,0.3-0.2C49.9,83.7,50,83.6,50,83.6z"/>
</g>
<g id="XMLID_79_">
	<path id="XMLID_82_" class="st2" d="M47.1,84.9"/>
	<path id="XMLID_81_" class="st2" d="M51.1,81.1"/>
	<path id="XMLID_80_" d="M51.1,81.1c0,0-0.1,0.1-0.2,0.1c-0.1,0-0.2,0.1-0.3,0.1c-0.1,0.1-0.2,0.1-0.3,0.2c-0.1,0.1-0.2,0.1-0.4,0.2
		c-0.1,0.1-0.3,0.2-0.4,0.2c-0.1,0-0.1,0.1-0.2,0.1c-0.1,0-0.1,0.1-0.2,0.2c-0.1,0-0.1,0.1-0.2,0.2c-0.1,0.1-0.1,0.1-0.2,0.2
		c-0.1,0.1-0.2,0.3-0.3,0.4c-0.1,0.1-0.2,0.3-0.3,0.4c-0.1,0.1-0.2,0.3-0.3,0.4c-0.1,0.1-0.2,0.3-0.2,0.4c-0.2,0.2-0.3,0.4-0.4,0.5
		c-0.1,0.1-0.2,0.2-0.2,0.2s0-0.1,0-0.3c0-0.2,0.1-0.4,0.1-0.7c0-0.1,0.1-0.3,0.1-0.4c0.1-0.2,0.1-0.3,0.2-0.5
		c0.1-0.2,0.2-0.3,0.3-0.5c0.1-0.2,0.2-0.3,0.4-0.5c0.1-0.1,0.1-0.1,0.2-0.2c0.1-0.1,0.1-0.1,0.2-0.2c0.2-0.1,0.3-0.2,0.5-0.3
		c0.2-0.1,0.3-0.2,0.5-0.2c0.2-0.1,0.3-0.1,0.5-0.1c0.1,0,0.3,0,0.4,0c0.1,0,0.2,0,0.3,0C51,81.1,51.1,81.1,51.1,81.1z"/>
</g>
<g id="XMLID_75_">
	<path id="XMLID_78_" class="st2" d="M142.6,50.9"/>
	<path id="XMLID_77_" class="st2" d="M137.4,52.8"/>
	<path id="XMLID_76_" d="M137.4,52.8c0,0,0-0.1,0.1-0.2c0-0.1,0.1-0.2,0.1-0.3c0.1-0.1,0.1-0.2,0.2-0.3c0.1-0.1,0.2-0.3,0.3-0.4
		c0.1-0.1,0.3-0.2,0.4-0.4c0.2-0.1,0.3-0.2,0.5-0.3c0.1,0,0.2-0.1,0.3-0.1c0.1,0,0.2-0.1,0.3-0.1c0.2-0.1,0.4-0.1,0.6-0.1
		c0.2,0,0.4,0,0.6,0c0.2,0,0.4,0,0.5,0c0.2,0,0.3,0.1,0.5,0.1c0.3,0.1,0.5,0.1,0.7,0.2c0.2,0.1,0.2,0.1,0.2,0.1s-0.1,0-0.3,0.1
		c-0.2,0-0.4,0.1-0.7,0.1c-0.1,0-0.3,0-0.4,0.1c-0.2,0-0.3,0-0.5,0.1c-0.2,0-0.3,0.1-0.5,0.1c-0.2,0-0.3,0.1-0.5,0.1
		c-0.1,0-0.2,0-0.2,0.1c-0.1,0-0.2,0-0.2,0.1c-0.1,0-0.2,0.1-0.2,0.1c-0.1,0-0.1,0.1-0.2,0.1c-0.1,0.1-0.3,0.1-0.4,0.2
		c-0.1,0.1-0.2,0.2-0.3,0.2c-0.1,0.1-0.2,0.2-0.3,0.2c-0.1,0.1-0.2,0.1-0.2,0.2C137.5,52.7,137.4,52.8,137.4,52.8z"/>
</g>
<g id="XMLID_69_">
	<path id="XMLID_74_" class="st2" d="M173.5,153.8c-2,2.4-3.6,2.6-3.6,2.6"/>
	<path id="XMLID_73_" class="st2" d="M177.1,147.4"/>
	<path id="XMLID_72_" class="st2" d="M176.5,150.4"/>
	<path id="XMLID_71_" class="st2" d="M180.7,142.3"/>
	<path id="XMLID_70_" d="M180.7,142.3c-0.1,0.4-0.2,0.8-0.3,1.1c-0.1,0.4-0.2,0.8-0.3,1.1c-0.2,0.8-0.4,1.5-0.7,2.3
		c-0.3,0.7-0.6,1.5-1.1,2.1c-0.2,0.3-0.5,0.7-0.8,0.9c-0.3,0.3-0.6,0.6-1,0.7l-0.5,0.2l0.1-0.6c0-0.3,0.1-0.5,0.1-0.8
		c0-0.3,0.1-0.5,0.1-0.8c0.1-0.5,0.2-1,0.3-1.5l0.6,0.5c-0.4,0.2-0.6,0.6-0.8,0.9c-0.2,0.4-0.4,0.8-0.5,1.3
		c-0.1,0.5-0.3,0.9-0.5,1.4c-0.1,0.2-0.2,0.5-0.3,0.7c-0.1,0.2-0.2,0.5-0.4,0.7c-0.1,0.2-0.3,0.4-0.4,0.7c-0.2,0.2-0.3,0.4-0.5,0.6
		l-0.3,0.3l-0.1,0.1l-0.1,0.1c-0.2,0.2-0.4,0.3-0.6,0.5c-0.2,0.2-0.4,0.3-0.6,0.5c-0.2,0.1-0.4,0.3-0.7,0.4
		c-0.2,0.1-0.5,0.2-0.7,0.3c-0.2,0.1-0.5,0.1-0.8,0.2l0-0.1c0.2-0.1,0.4-0.2,0.7-0.3c0.1-0.1,0.2-0.1,0.3-0.2
		c0.1-0.1,0.2-0.1,0.3-0.2c0.2-0.1,0.4-0.3,0.6-0.5c0.2-0.2,0.3-0.3,0.5-0.5l0.2-0.3l0.2-0.3l0.1-0.1l0.1-0.1l0.2-0.3
		c0.1-0.2,0.3-0.4,0.4-0.6c0.1-0.2,0.2-0.4,0.3-0.6c0.1-0.2,0.2-0.4,0.3-0.6c0.1-0.2,0.2-0.4,0.3-0.7c0.2-0.5,0.3-0.9,0.5-1.4
		c0.2-0.5,0.4-1,0.7-1.4c0.1-0.2,0.3-0.5,0.5-0.7c0.2-0.2,0.4-0.4,0.7-0.5l0.9-0.5l-0.3,1c-0.1,0.5-0.3,1-0.3,1.4
		c0,0.2-0.1,0.5-0.1,0.7c0,0.2-0.1,0.5-0.1,0.7l-0.5-0.3c0.3-0.1,0.6-0.3,0.9-0.6c0.3-0.2,0.5-0.5,0.7-0.8c0.2-0.3,0.4-0.6,0.6-1
		c0.2-0.3,0.4-0.7,0.5-1c0.3-0.7,0.6-1.4,0.8-2.2c0.1-0.4,0.2-0.7,0.3-1.1C180.4,143.1,180.5,142.7,180.7,142.3L180.7,142.3z"/>
</g>
<g id="XMLID_65_">
	<path id="XMLID_68_" class="st2" d="M145.8,147.7"/>
	<path id="XMLID_67_" class="st2" d="M139.3,149"/>
	<path id="XMLID_66_" d="M139.3,149c0,0,0.1-0.1,0.2-0.3c0.1-0.1,0.1-0.2,0.2-0.3c0.1-0.1,0.2-0.2,0.3-0.4c0.1-0.1,0.3-0.3,0.4-0.4
		c0.2-0.1,0.3-0.3,0.5-0.4c0.2-0.1,0.4-0.2,0.7-0.3c0.1,0,0.2-0.1,0.4-0.1c0.1,0,0.2,0,0.4-0.1c0.1,0,0.2,0,0.4,0c0.1,0,0.2,0,0.4,0
		c0.2,0,0.5,0,0.7,0.1c0.2,0,0.4,0.1,0.6,0.2c0.2,0.1,0.4,0.1,0.5,0.2c0.3,0.1,0.6,0.3,0.8,0.3c0.2,0.1,0.3,0.2,0.3,0.2
		s-0.1,0-0.3,0c-0.2,0-0.5,0-0.8,0c-0.2,0-0.3,0-0.5,0c-0.2,0-0.4,0-0.6,0c-0.1,0-0.2,0-0.3,0c-0.1,0-0.2,0-0.3,0
		c-0.1,0-0.2,0-0.3,0c-0.1,0-0.2,0-0.3,0c-0.2,0-0.4,0.1-0.6,0.1c-0.1,0-0.2,0.1-0.3,0.1c-0.1,0-0.2,0.1-0.3,0.1
		c-0.2,0.1-0.4,0.2-0.5,0.2c-0.2,0.1-0.3,0.2-0.5,0.3c-0.1,0.1-0.3,0.2-0.4,0.2c-0.1,0.1-0.2,0.2-0.3,0.2
		C139.4,148.9,139.3,149,139.3,149z"/>
</g>
<g id="XMLID_60_">
	<path id="XMLID_64_" class="st2" d="M72.5,182.8c-0.5,0.9-2,1.9-2.4,1.7c-1.3,0.1-2.2,1.8-5.7,0.6c2.4-1.7-4.9-1.7-7.3-3.1
		c0.3-0.3,0.6-0.5,0.9-0.8c-2.1-0.9-4.1-2.2-5.7-3.8c-0.6-0.6-1-1.7-0.3-2c-1.6-0.7-3.4-0.7-4.9-1.5s-2.6-3-1.3-4.1
		c-1.3-0.2-3.5-0.2-5.2-2.8c1.6,0.1-1.6-4.2-1.8-6c2.2,0.1-2.8-3.6-1.9-6.6c0.5,0.3,1.5,0.4,2,0c-0.1-1.4-2.1-2.6-1.9-6.9
		c2.3,1.7-0.4-4.5,1.4-5.8c1,0.8,2.9,0.4,3.9,1.2c-0.5-1-4-5.7-2.2-8.2c1,1.5,5.7,3.6,7,6.3c0.2-0.1-1.5-4.6-1.7-5.1
		c1.7,0.5,5.6-0.2,6.6,3c1.5-2.8,3.2,2.1,4.7,4.2c0.3-0.8,0.4-0.4,0.5-1.3c3.5,0.3,6.1,11.1,7.3,7.9c2.2,0.8,3.4,8.1,5.9,6.7
		c1.9,3,5,8.4,4.8,10.7c-0.7-0.1,2,6.1,0.4,7.7c-0.6,0.5-0.5,0.1-0.2,2.2C75.8,179.1,74.6,182.8,72.5,182.8z"/>
	<path id="XMLID_61_" d="M66.6,186.4c-0.7,0-1.6-0.1-2.6-0.5l-1.6-0.6l1.1-0.8c-0.6-0.2-1.6-0.4-2.3-0.5c-1.7-0.3-3.5-0.7-4.6-1.4
		l-1-0.6l0.7-0.7c-1.8-0.9-3.4-2-4.8-3.4c-0.5-0.5-1-1.4-0.9-2.2c-0.4-0.1-0.9-0.2-1.3-0.3c-0.9-0.2-1.8-0.4-2.7-0.8
		c-1.2-0.6-2.2-1.9-2.3-3.2c0-0.4,0-0.7,0-1c-1.4-0.2-3.1-0.9-4.6-3l-1.1-1.5l1.2,0.1c-0.2-0.5-0.5-1.2-0.8-1.7
		c-0.6-1.2-1.2-2.4-1.3-3.4l-0.1-1l0.3,0c-0.1-0.2-0.2-0.3-0.3-0.5c-1-1.4-2.3-3.4-1.8-5.4l0.3-1.1l1,0.5c0.1,0.1,0.3,0.1,0.5,0.1
		c-0.1-0.1-0.1-0.3-0.2-0.4c-0.6-1.1-1.6-2.8-1.4-5.9l0.1-1.6l0.9,0.6c0-0.2,0-0.5-0.1-0.7c-0.2-1.7-0.4-3.8,0.9-4.8l0.6-0.4
		l0.5,0.4c0.3,0.2,0.8,0.3,1.4,0.4c-1.2-2.1-2.5-5.1-1-7.2L40,133l0.7,1.1c0.3,0.5,1.3,1.2,2.3,1.9c0.6,0.4,1.3,0.9,1.9,1.4
		c-0.2-0.6-0.4-1.1-0.5-1.3l-0.8-1.8l1.9,0.6c0.3,0.1,0.9,0.2,1.5,0.2c1.6,0.1,3.8,0.4,5.1,2.1c0.2-0.1,0.5-0.2,0.7-0.2c0,0,0,0,0,0
		c1.4,0,2.3,1.7,3.4,3.6c0,0.1,0.1,0.1,0.1,0.2l0,0l0.9,0.1c2.3,0.2,3.9,3.3,5.3,6c0.4,0.7,0.9,1.6,1.2,2.2l0.2-0.4l0.8,0.3
		c1.3,0.4,2.1,2.1,3,3.9c0.6,1.2,1.4,2.7,1.9,2.9c0,0,0.1,0,0.3-0.1l0.7-0.4l0.4,0.7c1.6,2.5,5.2,8.5,5,11.2l-0.1,0.6
		c0.1,0.3,0.2,0.7,0.3,1.1c0.6,2.3,1.3,5.2,0,6.6l0,0c0,0-0.1,0.1-0.1,0.1c0,0.1,0,0.3,0.1,0.4c0,0.2,0.1,0.5,0.2,0.9
		c0.3,1.8-0.3,4.2-1.5,5.6c-0.5,0.7-1.2,1.1-1.8,1.2c-0.6,0.8-1.5,1.5-2.3,1.7c-0.3,0.1-0.6,0.1-0.8,0.1c-0.2,0.1-0.4,0.2-0.7,0.3
		C68.6,186,67.9,186.4,66.6,186.4z M65.7,184.6c1.4,0.3,2.1-0.1,2.8-0.4c0.4-0.2,0.9-0.5,1.5-0.5l0.3,0l0.1,0
		c0.4-0.1,1.1-0.7,1.4-1.2l0.2-0.5l0.5,0c0.4,0,0.8-0.4,1-0.6c0.8-1,1.3-2.9,1.1-4.2c-0.1-0.4-0.1-0.6-0.2-0.9c-0.2-1-0.3-1.4,0.4-2
		c0,0,0.1-0.1,0.2-0.1c0.6-0.6-0.1-3.6-0.4-4.9c-0.3-1.4-0.5-2.1-0.2-2.6c-0.1-1.6-1.8-5.1-4.4-9.3c-0.3,0-0.6,0-0.9-0.1
		c-1.3-0.4-2.1-2.1-3-3.8c-0.4-0.9-1-2-1.5-2.6c-0.2,0.2-0.5,0.2-0.7,0.2c0,0-0.1,0-0.1,0c-1.1,0-1.8-1.3-2.9-3.5
		c-0.9-1.6-2.1-4-3.3-4.8c0,0-0.1,0.1-0.1,0.1c0,0-0.1,0.1-0.1,0.3l-0.5,1.7l-1-1.4c-0.4-0.6-0.8-1.3-1.2-2
		c-0.5-0.9-1.3-2.4-1.8-2.7c0,0-0.1,0.1-0.2,0.3l-1,1.8l-0.6-2c-0.6-1.7-2.1-2-4.2-2.2c-0.1,0-0.1,0-0.2,0c0.1,0.4,0.3,0.9,0.5,1.3
		c0.2,0.7,0.4,1.3,0.5,1.7c0.2,0.7,0.4,1.3-0.1,1.7l-0.9,0.7l-0.5-1c-0.6-1.4-2.6-2.7-4.1-3.8c-0.6-0.4-1.2-0.8-1.7-1.2
		c0,1.8,1.5,4.4,2.2,5.5c0.2,0.3,0.3,0.5,0.4,0.7l2.2,4.2l-3.6-3.1c-0.3-0.2-0.9-0.3-1.5-0.4c-0.5-0.1-1-0.1-1.5-0.3
		c-0.2,0.7,0,1.9,0.1,2.7c0.2,1.5,0.3,2.5-0.6,3c-0.1,0.1-0.2,0.1-0.3,0.1c0.1,1.9,0.7,3,1.2,3.9c0.3,0.6,0.6,1.1,0.7,1.8l0,0.5
		l-0.3,0.3c-0.5,0.4-1.2,0.5-1.8,0.5c0.2,1,1,2.2,1.6,3.1c0.7,1.1,1.3,1.9,0.9,2.6c-0.1,0.1-0.1,0.2-0.3,0.3c0.2,0.6,0.6,1.4,1,2.1
		c0.8,1.6,1.3,2.7,1,3.5c1.3,1.4,2.7,1.6,3.8,1.7c0.1,0,0.2,0,0.3,0l2,0.2l-1.5,1.3c-0.1,0.1-0.3,0.3-0.3,0.8
		c0.1,0.7,0.7,1.5,1.4,1.9c0.7,0.3,1.5,0.5,2.3,0.7c0.9,0.2,1.7,0.4,2.6,0.8l1.8,0.9l-1.7,0.7c0,0.2,0.2,0.4,0.4,0.6
		c1.6,1.5,3.4,2.7,5.4,3.6l1.2,0.5l-0.8,0.8c0.9,0.3,1.9,0.5,2.9,0.7c2.3,0.5,3.9,0.8,4.1,1.9C65.7,184.3,65.7,184.4,65.7,184.6z"/>
</g>
<path id="XMLID_59_" d="M46.3,147.4c0,0,0,0-0.1,0c-0.1,0-0.2,0-0.3,0.1c-0.1,0-0.1,0-0.2,0c-0.1,0-0.2,0-0.3,0
	c-0.1,0-0.2-0.1-0.3-0.1c-0.1,0-0.2-0.1-0.3-0.2c-0.2-0.1-0.4-0.3-0.6-0.4c-0.1-0.1-0.2-0.2-0.3-0.3c-0.1-0.1-0.2-0.2-0.2-0.3
	c-0.2-0.2-0.3-0.4-0.5-0.6c-0.1-0.2-0.3-0.4-0.4-0.6c-0.1-0.2-0.3-0.4-0.4-0.6c-0.1-0.2-0.2-0.4-0.4-0.6c-0.1-0.2-0.2-0.4-0.3-0.6
	c-0.1-0.2-0.2-0.4-0.3-0.6c-0.1-0.2-0.1-0.3-0.2-0.5c-0.1-0.1-0.1-0.3-0.2-0.4c0-0.1-0.1-0.2-0.1-0.3c0-0.1,0-0.1,0-0.1s0,0,0.1,0
	c0.1,0,0.2,0.1,0.3,0.1c0.1,0,0.2,0.1,0.4,0.2c0.2,0.1,0.3,0.2,0.5,0.3c0.2,0.1,0.4,0.2,0.5,0.4c0.2,0.1,0.4,0.3,0.5,0.5
	c0.2,0.2,0.4,0.4,0.5,0.6c0.2,0.2,0.3,0.4,0.5,0.6c0.1,0.2,0.3,0.4,0.4,0.7c0.1,0.2,0.2,0.4,0.3,0.7c0,0.1,0.1,0.2,0.1,0.3
	c0,0.1,0.1,0.2,0.1,0.3c0.1,0.2,0.1,0.3,0.2,0.5c0,0.1,0.1,0.1,0.1,0.2c0,0.1,0.1,0.1,0.1,0.2c0,0.1,0.1,0.1,0.1,0.2
	c0,0.1,0.1,0.1,0.1,0.1C46.1,147.2,46.2,147.3,46.3,147.4C46.3,147.3,46.3,147.4,46.3,147.4z"/>
<path id="XMLID_58_" d="M44.3,138.3c0,0,0.1,0,0.2,0c0.1,0,0.1,0,0.2,0c0.1,0,0.2,0,0.3,0.1c0.2,0.1,0.4,0.2,0.7,0.3
	c0.3,0.1,0.5,0.3,0.8,0.5c0.3,0.2,0.6,0.4,0.9,0.6c0.3,0.2,0.6,0.5,0.9,0.8c0.3,0.3,0.6,0.6,0.9,0.9c0.3,0.3,0.6,0.7,0.8,1
	c0.3,0.4,0.5,0.7,0.7,1.1c0.2,0.4,0.4,0.8,0.6,1.1c0.2,0.4,0.4,0.8,0.5,1.1c0.1,0.4,0.2,0.7,0.3,1.1c0,0.2,0.1,0.3,0.1,0.5
	c0,0.2,0,0.3,0,0.5c0,0.1,0,0.3,0,0.4c0,0.1,0,0.2,0,0.3c0,0.2-0.1,0.4-0.1,0.5c0,0.1-0.1,0.1-0.1,0.1s0-0.1,0-0.2
	c0-0.1,0-0.1,0-0.2c0-0.1-0.1-0.1-0.1-0.2c0-0.1-0.1-0.2-0.1-0.3c0-0.1-0.1-0.2-0.2-0.3c-0.1-0.1-0.1-0.2-0.2-0.4
	c-0.1-0.1-0.1-0.3-0.2-0.4c-0.2-0.3-0.3-0.5-0.5-0.8c-0.1-0.1-0.1-0.1-0.2-0.2c-0.1-0.1-0.1-0.2-0.2-0.2c-0.1-0.2-0.2-0.3-0.3-0.5
	c-0.1-0.2-0.2-0.3-0.3-0.5c-0.1-0.2-0.2-0.3-0.4-0.5c-0.2-0.3-0.5-0.7-0.7-1c-0.2-0.3-0.5-0.7-0.7-1c-0.1-0.2-0.2-0.3-0.4-0.5
	c-0.1-0.2-0.2-0.3-0.4-0.5c-0.2-0.3-0.5-0.6-0.7-0.9c-0.2-0.3-0.4-0.6-0.6-0.8c-0.2-0.2-0.4-0.5-0.5-0.7c-0.2-0.2-0.3-0.4-0.4-0.5
	c-0.1-0.1-0.1-0.1-0.2-0.2c-0.1,0-0.1-0.1-0.1-0.1C44.4,138.4,44.3,138.3,44.3,138.3z"/>
<path id="XMLID_57_" d="M42.6,153.5c0,0,0,0-0.1,0c-0.1,0-0.2,0-0.4,0c-0.2,0-0.3-0.1-0.5-0.1c-0.2,0-0.4-0.1-0.7-0.2
	c-0.1,0-0.2-0.1-0.4-0.2c-0.1,0-0.1-0.1-0.2-0.1c-0.1,0-0.1-0.1-0.2-0.1c-0.1,0-0.1-0.1-0.2-0.1c-0.1,0-0.1-0.1-0.2-0.1
	c-0.1-0.1-0.3-0.2-0.4-0.3c-0.1-0.1-0.2-0.3-0.4-0.4c-0.1-0.1-0.2-0.3-0.3-0.4c-0.1-0.1-0.2-0.3-0.3-0.5l-0.1-0.2
	c0-0.1-0.1-0.2-0.1-0.2c-0.1-0.2-0.2-0.3-0.2-0.5c-0.1-0.2-0.1-0.3-0.2-0.5c-0.1-0.2-0.1-0.3-0.1-0.5c0-0.2-0.1-0.3-0.1-0.5
	c0-0.3-0.1-0.6-0.1-0.9c0-0.3,0-0.6,0-0.8c0-0.3,0-0.5,0-0.7c0-0.2,0.1-0.4,0.1-0.5c0-0.1,0.1-0.3,0.1-0.3c0-0.1,0-0.1,0-0.1
	s0,0,0.1,0.1c0,0.1,0.1,0.2,0.2,0.3c0.1,0.1,0.1,0.3,0.2,0.5c0.1,0.2,0.2,0.4,0.3,0.6c0.1,0.2,0.2,0.5,0.3,0.7
	c0.1,0.3,0.2,0.5,0.3,0.8c0.1,0.3,0.2,0.5,0.3,0.8c0.1,0.1,0.1,0.3,0.2,0.4c0.1,0.1,0.1,0.3,0.2,0.4c0,0.1,0.1,0.1,0.1,0.2l0.1,0.2
	c0.1,0.1,0.1,0.3,0.2,0.4c0.1,0.1,0.1,0.3,0.2,0.4c0.1,0.1,0.1,0.2,0.2,0.4c0.1,0.1,0.2,0.2,0.2,0.3c0.1,0.1,0.2,0.2,0.2,0.3
	c0,0.1,0.1,0.1,0.1,0.2c0,0,0.1,0.1,0.1,0.1c0.1,0.1,0.2,0.2,0.2,0.3c0.2,0.2,0.3,0.3,0.4,0.5c0.1,0.1,0.3,0.3,0.4,0.4
	C42.4,153.2,42.5,153.3,42.6,153.5C42.6,153.4,42.6,153.5,42.6,153.5z"/>
<g id="XMLID_53_">
	<path id="XMLID_56_" class="st2" d="M42.6,160.6"/>
	<path id="XMLID_55_" class="st2" d="M45.9,164.5"/>
	<path id="XMLID_54_" d="M45.9,164.5c0,0-0.1,0-0.2,0c-0.1,0-0.2,0-0.3,0c-0.1,0-0.2,0-0.4-0.1c-0.1,0-0.3-0.1-0.4-0.1
		c-0.2-0.1-0.3-0.1-0.5-0.2c-0.1-0.1-0.3-0.2-0.4-0.3c-0.1-0.1-0.1-0.1-0.2-0.2c-0.1-0.1-0.1-0.1-0.2-0.2c-0.1-0.2-0.2-0.3-0.3-0.5
		c-0.1-0.2-0.1-0.3-0.2-0.5c-0.1-0.2-0.1-0.3-0.1-0.5c0-0.1-0.1-0.3-0.1-0.4c0-0.3,0-0.5,0-0.6c0-0.2,0-0.2,0-0.2s0.1,0.1,0.1,0.2
		c0.1,0.1,0.2,0.3,0.3,0.5c0.1,0.1,0.1,0.2,0.2,0.4c0.1,0.1,0.1,0.3,0.2,0.4c0.1,0.1,0.2,0.3,0.2,0.4c0.1,0.1,0.2,0.3,0.3,0.4
		c0,0.1,0.1,0.1,0.1,0.2c0,0.1,0.1,0.1,0.1,0.2c0.1,0.1,0.1,0.1,0.1,0.2c0.1,0,0.1,0.1,0.2,0.2c0.1,0.1,0.2,0.2,0.3,0.3
		c0.1,0.1,0.2,0.2,0.3,0.2c0.1,0.1,0.2,0.1,0.3,0.2c0.1,0.1,0.2,0.1,0.2,0.2C45.9,164.5,45.9,164.5,45.9,164.5z"/>
</g>
<path id="XMLID_52_" d="M71.8,174.8c0.1,0.1,0.1,0.2,0.2,0.4c0,0.1,0.1,0.3,0.1,0.4c0,0.3,0,0.6,0,0.9c-0.1,0.6-0.4,1.1-0.7,1.6
	c-0.3,0.5-0.7,0.9-1,1.3c-0.1,0.1-0.2,0.2-0.2,0.3c-0.1,0.1-0.1,0.2-0.2,0.3c0,0.1,0,0.1-0.1,0.1c0,0,0-0.1,0,0c0,0,0,0,0,0l0.4,0.3
	l-0.3,0.4c-0.2,0.2-0.4,0.3-0.6,0.5c-0.2,0.1-0.4,0.2-0.6,0.3c-0.4,0.2-0.8,0.3-1.3,0.3c-0.2,0-0.4,0-0.6,0c-0.2,0-0.4,0-0.7-0.1
	c-0.2,0-0.4-0.1-0.6-0.2c-0.2-0.1-0.4-0.3-0.4-0.5c0.2,0.1,0.3,0.2,0.5,0.3c0.2,0,0.4,0.1,0.6,0c0.4,0,0.8-0.1,1.1-0.2
	c0.4-0.1,0.7-0.3,1.1-0.4c0.2-0.1,0.3-0.2,0.5-0.3c0.1-0.1,0.3-0.2,0.4-0.3l0.1,0.7c-0.1,0-0.2-0.1-0.3-0.2
	c-0.1-0.1-0.2-0.2-0.2-0.4c0-0.2,0-0.3,0-0.4c0-0.1,0.1-0.2,0.1-0.3c0.1-0.2,0.2-0.3,0.3-0.4c0.1-0.1,0.2-0.2,0.3-0.3
	c0.4-0.4,0.7-0.8,1.1-1.1c0.3-0.4,0.6-0.8,0.8-1.2c0.1-0.2,0.2-0.5,0.2-0.7C71.8,175.3,71.8,175.1,71.8,174.8z"/>
<g id="XMLID_45_">
	<path id="XMLID_51_" class="st2" d="M102.4,180.1"/>
	<path id="XMLID_50_" class="st2" d="M104.2,186.3"/>
	<path id="XMLID_49_" class="st2" d="M104.8,184.2"/>
	<path id="XMLID_48_" class="st2" d="M110,191.1"/>
	<path id="XMLID_47_" d="M105,184.7C105,184.7,105,184.7,105,184.7C105,184.7,105,184.7,105,184.7c0,0,0,0.1,0,0.1
		c0,0.1-0.1,0.3-0.1,0.5l0,0.5c0,0.1,0,0.2,0,0.3c0,0.1,0,0.2-0.1,0.4l-0.2,0.5l-0.5-0.2l-0.2-0.1c-0.1,0-0.2-0.1-0.2-0.1
		c-0.1-0.1-0.1-0.1-0.2-0.2c-0.1-0.1-0.1-0.1-0.2-0.2c-0.1-0.1-0.2-0.3-0.3-0.4c-0.1-0.1-0.2-0.3-0.3-0.4c-0.2-0.3-0.3-0.6-0.4-0.9
		c0-0.2-0.1-0.3-0.1-0.5c0-0.2-0.1-0.3-0.1-0.5c0-0.2,0-0.3,0-0.5c0-0.2,0-0.3,0-0.5c0-0.3,0-0.6,0.1-0.9c0-0.3,0.1-0.6,0.2-0.9
		c0-0.1,0.1-0.3,0.1-0.4c0-0.1,0.1-0.3,0.2-0.4c0,0.1,0,0.3,0,0.4c0,0.1,0,0.3,0,0.4c0,0.3,0,0.6,0.1,0.9c0.1,0.6,0.1,1.1,0.3,1.6
		c0,0.1,0.1,0.3,0.1,0.4c0,0.1,0.1,0.3,0.1,0.4c0.1,0.2,0.2,0.5,0.3,0.7c0.1,0.2,0.3,0.4,0.5,0.5c0,0,0.1,0.1,0.1,0.1l0.1,0.1
		c0,0,0.1,0.1,0.1,0.1l0.2,0.1"/>
	<path id="XMLID_46_" d="M103.6,186.1c0,0,0-0.1,0-0.1l0-0.2c0-0.2,0-0.4,0.1-0.6c0-0.2,0.1-0.4,0.2-0.7c0-0.1,0-0.1,0.1-0.2
		c0-0.1,0.1-0.1,0.1-0.2c0-0.1,0.1-0.1,0.2-0.2c0.1-0.1,0.2-0.1,0.3-0.2l0.7-0.3l0,0.7l0,0.6c0,0.2,0,0.4,0,0.6
		c0,0.4,0.1,0.8,0.2,1.2c0.1,0.4,0.2,0.8,0.3,1.1c0.1,0.4,0.3,0.7,0.4,1.1c0.4,0.7,0.9,1.3,1.5,1.7c0.3,0.2,0.7,0.4,1.1,0.5
		c0.2,0.1,0.4,0.1,0.6,0.1c0.2,0,0.4,0.1,0.6,0.1c-0.4,0-0.8,0-1.2,0c-0.4-0.1-0.8-0.2-1.2-0.3c-0.4-0.2-0.8-0.4-1.1-0.7
		c-0.3-0.3-0.6-0.6-0.8-1c-0.5-0.7-0.8-1.5-1-2.3c-0.1-0.4-0.2-0.8-0.2-1.2c0-0.1,0-0.1,0-0.2c0-0.1,0-0.3,0-0.4l-0.1-0.6"/>
</g>
<g id="XMLID_40_">
	<path id="XMLID_44_" class="st2" d="M61.1,78.6"/>
	<path id="XMLID_43_" class="st2" d="M63.6,82.5"/>
	<path id="XMLID_42_" class="st2" d="M60.5,82.2"/>
	<path id="XMLID_41_" d="M63.2,82.5c0-0.1,0-0.2,0-0.3c0-0.1,0-0.2-0.1-0.3c0-0.2-0.1-0.4-0.1-0.6c-0.1-0.4-0.2-0.8-0.4-1.1
		c0-0.1-0.1-0.2-0.1-0.3c0-0.1-0.1-0.2-0.1-0.3c-0.1-0.2-0.2-0.3-0.3-0.5c-0.1-0.1-0.1-0.1-0.2-0.2L61.7,79l-0.1-0.1
		c-0.1-0.1-0.2-0.1-0.2-0.2c-0.1-0.1-0.2-0.1-0.3-0.1c0.1,0,0.2,0,0.3,0.1c0.1,0,0.1,0,0.2,0c0,0,0.1,0,0.1,0.1l0.1,0.1l0.1,0.1
		c0.1,0.1,0.2,0.1,0.3,0.2c0.1,0.1,0.2,0.1,0.2,0.2c0.1,0.1,0.2,0.2,0.2,0.2c0.1,0.1,0.1,0.2,0.2,0.3c0.1,0.1,0.1,0.2,0.2,0.3
		c0.1,0.2,0.2,0.4,0.3,0.6c0.1,0.2,0.2,0.4,0.2,0.6c0.1,0.2,0.1,0.4,0.2,0.6c0,0.1,0.1,0.2,0.1,0.3c0,0.1,0,0.2,0.1,0.3l0.1,0.8
		l-0.7-0.4c-0.1-0.1-0.2-0.1-0.3-0.2c-0.1-0.1-0.2-0.1-0.3-0.2c-0.2-0.1-0.4-0.2-0.7-0.3c-0.2-0.1-0.5-0.1-0.7-0.1
		c-0.1,0-0.1,0-0.2,0c-0.1,0-0.1,0-0.2,0c-0.1,0-0.1,0-0.2,0l-0.2,0c0.1-0.1,0.2-0.2,0.3-0.3c0.1-0.1,0.3-0.2,0.4-0.2
		c0.1,0,0.1-0.1,0.2-0.1c0.1,0,0.2,0,0.2-0.1c0.2,0,0.3,0,0.5,0c0.2,0,0.3,0,0.5,0.1c0.2,0,0.3,0.1,0.4,0.1c0.3,0.1,0.5,0.3,0.8,0.4
		"/>
</g>
</svg>
